<svg width="22" height="19" viewBox="0 0 22 19" fill="none" xmlns="http://www.w3.org/2000/svg">
<path d="M21.6614 10.4793L14.0088 18.1321C13.7903 18.3506 13.4992 18.4705 13.1887 18.4705C12.8779 18.4705 12.5869 18.3504 12.3685 18.1321L11.6737 17.4371C11.4554 17.219 11.3352 16.9277 11.3352 16.6171C11.3352 16.3066 11.4554 16.0055 11.6737 15.7874L16.1381 11.3131H1.95437C1.31487 11.3131 0.80957 10.8125 0.80957 10.1728V9.19028C0.80957 8.55061 1.31487 7.99948 1.95437 7.99948H16.1888L11.6739 3.50023C11.4556 3.28178 11.3353 2.99838 11.3353 2.68776C11.3353 2.37749 11.4556 2.08995 11.6739 1.87168L12.3687 1.17894C12.5871 0.960489 12.8781 0.841444 13.1889 0.841444C13.4993 0.841444 13.7905 0.962038 14.0089 1.18049L21.6616 8.83315C21.8806 9.05228 22.001 9.34481 22.0001 9.65578C22.0008 9.96778 21.8806 10.2605 21.6614 10.4793Z" fill="#19D3E0"/>
</svg>
