<svg width="370" height="356" viewBox="0 0 370 356" fill="none" xmlns="http://www.w3.org/2000/svg">
<rect y="103.466" width="165.898" height="162.645" rx="6.50581" fill="#F6F8FF"/>
<rect x="189.598" width="180.402" height="176.865" rx="7.0746" fill="#F6F8FF"/>
<rect x="189.598" y="202.633" width="156.418" height="153.351" rx="6.13404" fill="#F6F8FF"/>
<path d="M116.131 167.137C116.109 158.496 108.897 151.469 100.026 151.469C93.5209 151.469 87.8547 155.263 85.3214 160.756C82.7873 155.27 77.123 151.469 70.6148 151.469C61.7476 151.469 54.5321 158.496 54.5049 167.138C54.5046 167.154 54.5034 167.171 54.5034 167.187C54.5034 186.727 83.405 202.815 84.6397 203.491C84.8386 203.596 85.0473 203.652 85.2639 203.661C87.3689 202.082 96.3525 194.958 100.004 185.784C104.154 175.356 97.4409 164.618 97.4409 164.618L97.9207 164.307C97.9207 164.307 109.859 171.02 110.664 182.396C113.905 177.762 116.133 172.608 116.133 167.187C116.133 167.171 116.131 167.154 116.131 167.137ZM94.1704 163.718C92.7398 163.718 91.5819 162.589 91.5819 161.197C91.5819 159.805 92.7398 158.676 94.1704 158.676C95.5994 158.676 96.7593 159.805 96.7593 161.197C96.7593 162.589 95.5994 163.718 94.1704 163.718Z" fill="#DB4535"/>
<path d="M65.4911 217.201C65.4911 218.672 64.9202 219.733 63.78 220.38C62.6379 221.028 61.1926 221.351 59.4426 221.351H54.0444V207.446H59.0226C60.7163 207.446 62.12 207.781 63.2333 208.448C64.3463 209.116 64.9032 210.118 64.9032 211.454C64.9032 211.945 64.7841 212.388 64.5463 212.783C64.3081 213.179 63.9864 213.574 63.58 213.97C64.1683 214.365 64.6329 214.842 64.9769 215.401C65.3198 215.959 65.4911 216.559 65.4911 217.201ZM60.9548 211.638C60.9548 211.229 60.773 210.916 60.4089 210.697C60.0445 210.479 59.5405 210.37 58.8963 210.37H57.8673V212.722H58.7285C59.3583 212.722 59.8864 212.63 60.314 212.445C60.7408 212.262 60.9548 211.993 60.9548 211.638ZM61.5427 217.118C61.5427 216.655 61.3605 216.294 60.9964 216.035C60.6323 215.776 60.128 215.646 59.4842 215.646H57.8673V218.427H59.5265C60.1431 218.427 60.6327 218.315 60.9968 218.09C61.3608 217.865 61.5427 217.541 61.5427 217.118Z" fill="#212044"/>
<path d="M71.8123 211.086C72.8621 211.086 73.7513 211.318 74.4798 211.781C75.2072 212.245 75.7573 212.865 76.1281 213.643C76.4986 214.42 76.6846 215.285 76.6846 216.239V217.323H70.4891C70.6286 217.746 70.8914 218.077 71.2766 218.315C71.6615 218.553 72.1692 218.672 72.799 218.672C73.7653 218.672 74.6961 218.448 75.5928 217.998L76.6634 220.513C76.2438 220.813 75.6378 221.066 74.8469 221.27C74.0553 221.475 73.247 221.577 72.421 221.577C71.2305 221.577 70.1765 221.379 69.2605 220.984C68.3426 220.589 67.625 219.999 67.1078 219.215C66.5899 218.431 66.3306 217.494 66.3306 216.403C66.3306 215.327 66.5684 214.386 67.0447 213.581C67.5203 212.776 68.1751 212.16 69.0083 211.73C69.8411 211.301 70.7761 211.086 71.8123 211.086ZM71.7072 214.072C71.3568 214.072 71.0456 214.215 70.7727 214.501C70.4993 214.787 70.37 215.115 70.384 215.483H73.03C73.03 215.142 72.9181 214.822 72.6943 214.522C72.4705 214.222 72.1408 214.072 71.7072 214.072Z" fill="#212044"/>
<path d="M81.6633 214.112C81.3265 214.112 80.9174 214.171 80.4347 214.286C79.9511 214.402 79.513 214.542 79.1217 214.705L78.1134 212.027C78.7017 211.768 79.4015 211.546 80.2139 211.362C81.0252 211.178 81.8236 211.086 82.6077 211.086C83.9664 211.086 85.0091 211.454 85.7376 212.19C86.465 212.927 86.8298 213.936 86.8298 215.217V221.351H84.9815L83.8893 220.329C83.2167 221.161 82.4538 221.577 81.5994 221.577C80.3394 221.577 79.3871 221.27 78.7429 220.657C78.0994 220.043 77.7773 219.212 77.7773 218.162C77.7773 216.226 79.1069 215.258 81.7677 215.258H82.9858C82.9298 214.877 82.7869 214.59 82.5555 214.399C82.3249 214.208 82.027 214.112 81.6633 214.112ZM81.8308 217.302C81.579 217.302 81.3722 217.378 81.2112 217.527C81.0501 217.677 80.9696 217.868 80.9696 218.1C80.9696 218.304 81.0361 218.471 81.1692 218.601C81.3019 218.731 81.4664 218.795 81.663 218.795C82.0962 218.795 82.5449 218.611 83.0069 218.243V217.302H81.8308V217.302Z" fill="#212044"/>
<path d="M93.4033 211.842H96.0712L96.4277 214.767H93.4033V217.22C93.4033 217.629 93.5118 217.954 93.7288 218.192C93.9458 218.43 94.2365 218.55 94.6006 218.55C95.1045 218.55 95.5949 218.42 96.0712 218.161L97.1634 220.697C96.8969 220.915 96.481 221.116 95.9132 221.301C95.3465 221.484 94.8244 221.576 94.3488 221.576C93.5088 221.576 92.7243 221.426 91.9966 221.127C91.2681 220.827 90.6836 220.38 90.242 219.787C89.8012 219.194 89.5812 218.475 89.5812 217.63V214.767H88.0059V211.843H89.5812V209.164L93.4029 208.653V211.842H93.4033Z" fill="#212044"/>
<path d="M102.244 211.433V221.351H98.4219V211.433H102.244Z" fill="#212044"/>
<path d="M102.424 208.387C102.424 208.933 102.217 209.403 101.804 209.798C101.39 210.194 100.897 210.391 100.324 210.391C99.7633 210.391 99.2802 210.194 98.8742 209.798C98.4681 209.403 98.2651 208.933 98.2651 208.387C98.2651 207.828 98.4681 207.348 98.8742 206.946C99.2802 206.544 99.7633 206.342 100.324 206.342C100.897 206.342 101.39 206.544 101.804 206.946C102.217 207.348 102.424 207.829 102.424 208.387Z" fill="#DB4535"/>
<path d="M110.226 214.112C110.002 214.112 109.686 214.171 109.281 214.286C108.874 214.402 108.503 214.535 108.168 214.685V221.351H104.345V211.433H106.614L107.285 212.456C108.77 211.556 110.156 211.106 111.444 211.106C112.676 211.106 113.6 211.457 114.217 212.159C114.832 212.862 115.14 213.792 115.14 214.951V221.351H111.318V215.298C111.318 214.958 111.234 214.675 111.066 214.45C110.898 214.225 110.617 214.112 110.226 214.112Z" fill="#212044"/>
<path d="M292.212 277.785C292.212 276.664 288.981 271.728 282.186 268.223C282.229 267.011 282.199 265.304 282.199 265.304C282.199 265.304 282.293 249.971 268.927 249.971C255.07 249.971 254.137 261.138 253.709 263.878C253.269 266.692 253.257 273.189 253.257 277.173V299.832C253.257 299.832 253.102 304.098 257.908 304.098C263.056 304.098 262.994 299.643 262.994 299.643C262.994 299.643 262.945 293.7 268.018 293.7C273.197 293.7 272.656 299.752 272.656 299.752V308.205C272.656 308.205 272.593 312.315 277.369 312.315C282.145 312.315 282.258 308.391 282.258 308.391L282.295 286.492C288.553 283.181 292.212 278.85 292.212 277.785ZM282.355 284.825C281.609 285.191 280.998 285.547 280.289 285.888C280.266 285.9 280.224 285.911 280.201 285.922C279.863 286.083 279.507 286.242 279.154 286.396C279.115 286.413 279.071 286.43 279.032 286.447C278.674 286.601 278.309 286.752 277.937 286.897C277.396 287.107 276.835 287.307 276.262 287.496C273.35 288.45 270.051 289.07 266.442 289.07C263.817 289.07 261.359 288.726 259.091 288.167C258.174 287.94 257.285 287.682 256.434 287.392C256.418 287.387 256.398 287.381 256.383 287.376C256.319 287.355 256.264 287.335 256.134 287.297C256.126 287.294 256.119 287.292 256.111 287.289C256.107 287.288 256.104 287.287 256.1 287.286C255.78 287.19 255.165 286.822 255.029 286.524C254.892 286.226 254.944 284.786 254.944 284.786L254.959 277.569C254.959 274.95 254.885 272.844 255.004 270.394C255.049 269.466 255.15 268.466 255.496 268.028C255.794 267.651 256.405 267.461 256.405 267.461H256.408C256.589 267.461 256.769 267.384 256.953 267.323C259.147 266.66 261.609 266.244 264.344 266.084C265.027 266.052 265.728 266.034 266.443 266.034C267.373 266.034 268.275 266.066 269.145 266.13C269.585 266.162 270.012 266.202 270.434 266.244C270.646 266.266 270.855 266.291 271.063 266.319C271.471 266.371 271.868 266.433 272.262 266.497C272.307 266.504 272.351 266.512 272.397 266.519C272.434 266.525 272.471 266.531 272.508 266.537C272.878 266.6 273.241 266.671 273.6 266.745C273.75 266.776 273.897 266.809 274.046 266.842C274.293 266.897 274.538 266.954 274.78 267.013C274.911 267.045 275.043 267.078 275.172 267.111C275.532 267.205 275.889 267.302 276.236 267.406C276.81 267.577 277.365 267.763 277.903 267.958C278.258 268.088 278.603 268.223 278.943 268.362C279.025 268.395 279.106 268.429 279.186 268.463C279.502 268.595 279.812 268.729 280.113 268.869C280.129 268.875 280.145 268.882 280.16 268.889C280.503 269.048 280.837 269.212 281.163 269.378C281.182 269.388 281.2 269.398 281.219 269.408C281.542 269.574 281.856 269.743 282.16 269.915C284.42 271.192 286.184 272.614 287.467 273.906C289.233 275.684 290.127 277.209 290.127 277.765C290.128 278.666 287.329 282.007 282.355 284.825Z" fill="#0C0101"/>
<path d="M266.62 271.606C263.429 271.606 260.842 274.215 260.842 277.429C260.842 280.643 263.429 283.248 266.62 283.248C269.812 283.248 272.398 280.643 272.398 277.429C272.398 274.215 269.812 271.606 266.62 271.606Z" fill="#0C0101"/>
<g clip-path="url(#clip0)">
<path d="M245.588 122.907C245.025 124.339 244.545 125.757 244.148 127.16C243.751 128.562 243.463 129.838 243.284 130.987C243.104 132.136 243.047 133.113 243.111 133.919C243.175 134.725 243.386 135.261 243.745 135.53C244.18 135.829 244.769 135.866 245.512 135.642C246.254 135.418 247.08 135.015 247.989 134.434C248.898 133.852 249.845 133.129 250.832 132.262C251.817 131.397 253.738 132.837 252.522 133.897C251.305 134.956 250.044 135.821 248.738 136.493C247.433 137.164 246.19 137.5 245.012 137.5C244.193 137.261 243.457 137.06 242.803 136.896C242.151 136.732 241.529 136.456 240.941 136.067C239.916 135.381 239.199 134.411 238.79 133.158C238.38 131.904 238.22 130.494 238.309 128.927C238.399 127.36 238.706 125.697 239.231 123.936C239.756 122.176 240.435 120.467 241.267 118.81C242.1 117.155 243.053 115.603 244.128 114.155C245.204 112.708 246.338 111.507 247.528 110.551C248.719 109.597 249.934 108.948 251.177 108.604C252.419 108.261 253.629 108.359 254.806 108.895C255.242 109.104 255.626 109.298 255.959 109.477C256.291 109.657 256.574 109.821 256.804 109.97C257.086 109.492 257.38 109.119 257.687 108.851C258.276 109.03 258.775 109.239 259.185 109.478C259.543 109.687 259.819 109.941 260.011 110.238C260.203 110.538 260.157 110.896 259.876 111.313C259.748 111.522 259.441 112.037 258.955 112.857C258.468 113.678 257.943 114.574 257.38 115.543C256.817 116.513 256.291 117.439 255.805 118.318C255.319 119.199 255.012 119.818 254.884 120.176C254.679 119.968 254.57 119.527 254.558 118.856C254.544 118.185 254.595 117.409 254.711 116.528C254.826 115.648 255.005 114.738 255.249 113.797C255.491 112.857 255.78 112.015 256.113 111.268C255.165 110.941 254.205 111.06 253.232 111.627C252.258 112.194 251.312 113.037 250.39 114.156C249.468 115.275 248.597 116.603 247.778 118.14C246.958 119.677 246.228 121.266 245.588 122.907Z" fill="black"/>
<path d="M267.94 133.999C268.17 134.042 268.37 134.214 268.537 134.517C268.705 134.822 268.042 136.16 267.383 136.694C266.723 137.229 266.131 137.495 265.608 137.495C265.125 137.495 264.67 137.354 264.241 137.071C263.811 136.789 263.419 136.511 263.062 136.239C262.811 136.029 262.627 135.778 262.512 135.485C262.397 135.191 262.35 134.888 262.371 134.573C262.014 135.034 261.637 135.474 261.239 135.893C260.841 136.312 260.427 136.658 259.998 136.93C259.569 137.202 259.144 137.381 258.725 137.464C258.306 137.548 257.909 137.485 257.531 137.275C257.133 137.045 256.804 136.815 256.542 136.584C256.279 136.354 256.002 136.124 255.709 135.893C255.143 135.411 254.871 134.735 254.892 133.866C254.913 132.997 255.133 132.069 255.552 131.085C255.971 130.1 256.536 129.126 257.249 128.163C257.961 127.199 258.721 126.382 259.527 125.712C260.333 125.042 261.134 124.577 261.93 124.314C262.727 124.052 263.428 124.131 264.036 124.55C264.622 124.969 265.068 125.393 265.371 125.822C265.675 126.252 265.859 126.639 265.921 126.985C265.984 127.33 265.947 127.613 265.811 127.833C265.675 128.053 265.471 128.163 265.199 128.163C264.885 127.577 264.314 127.477 263.486 127.864C262.658 128.252 261.774 129.116 260.831 130.457C260.432 131.022 260.066 131.615 259.731 132.232C259.396 132.85 259.123 133.426 258.914 133.96C258.704 134.494 258.568 134.95 258.505 135.327C258.443 135.704 258.474 135.935 258.599 136.018C258.745 136.124 258.961 136.076 259.244 135.877C259.527 135.678 259.851 135.385 260.218 134.997C260.584 134.61 260.967 134.144 261.365 133.598C261.763 133.054 262.145 132.499 262.512 131.933C262.878 131.367 263.213 130.812 263.517 130.267C263.821 129.723 264.056 129.241 264.224 128.821C264.517 128.633 264.863 128.607 265.261 128.743C265.659 128.88 266.026 129.11 266.361 129.435C266.696 129.76 266.947 130.147 267.115 130.597C267.283 131.047 267.293 131.482 267.147 131.901C266.937 132.467 266.743 133.006 266.566 133.519C266.387 134.032 266.246 134.483 266.142 134.87C266.037 135.258 265.969 135.562 265.938 135.782C265.906 136.002 265.942 136.112 266.047 136.112C266.256 136.112 266.586 135.85 267.037 135.326C267.487 134.804 267.437 134.858 267.94 133.999Z" fill="black"/>
<path d="M322.467 133.999C322.698 134.042 322.897 134.214 323.065 134.517C323.232 134.822 322.57 136.16 321.91 136.694C321.25 137.229 320.658 137.495 320.134 137.495C319.652 137.495 319.196 137.354 318.768 137.071C318.338 136.789 317.945 136.511 317.589 136.239C317.337 136.029 317.154 135.778 317.038 135.485C316.923 135.191 316.877 134.888 316.898 134.573C316.541 135.034 316.164 135.474 315.766 135.893C315.368 136.312 314.955 136.658 314.525 136.93C314.095 137.202 313.671 137.381 313.253 137.464C312.833 137.548 312.435 137.485 312.058 137.275C311.66 137.045 311.33 136.815 311.068 136.584C310.806 136.354 310.529 136.124 310.236 135.893C309.67 135.411 309.398 134.735 309.419 133.866C309.44 132.997 309.66 132.069 310.079 131.085C310.498 130.1 311.064 129.126 311.775 128.163C312.488 127.199 313.247 126.382 314.054 125.712C314.86 125.042 315.662 124.577 316.458 124.314C317.255 124.052 317.955 124.131 318.564 124.55C319.15 124.969 319.595 125.393 319.899 125.822C320.203 126.252 320.386 126.639 320.449 126.985C320.511 127.33 320.474 127.613 320.339 127.833C320.203 128.053 319.999 128.163 319.726 128.163C319.411 127.577 318.841 127.477 318.013 127.864C317.186 128.252 316.3 129.116 315.357 130.457C314.959 131.022 314.593 131.615 314.258 132.232C313.922 132.85 313.65 133.426 313.441 133.96C313.231 134.494 313.095 134.95 313.032 135.327C312.97 135.704 313.001 135.935 313.127 136.018C313.273 136.124 313.488 136.076 313.771 135.877C314.054 135.678 314.379 135.385 314.745 134.997C315.112 134.61 315.495 134.144 315.892 133.598C316.29 133.054 316.673 132.499 317.039 131.933C317.406 131.367 317.741 130.812 318.046 130.267C318.349 129.723 318.584 129.241 318.752 128.821C319.045 128.633 319.391 128.607 319.789 128.743C320.187 128.88 320.553 129.11 320.889 129.435C321.224 129.76 321.475 130.147 321.643 130.597C321.811 131.047 321.82 131.482 321.674 131.901C321.465 132.467 321.271 133.006 321.093 133.519C320.915 134.032 320.773 134.483 320.669 134.87C320.564 135.258 320.496 135.562 320.465 135.782C320.434 136.002 320.47 136.112 320.575 136.112C320.784 136.112 321.113 135.85 321.564 135.326C322.015 134.804 321.964 134.858 322.467 133.999Z" fill="black"/>
<path d="M281.861 124.421C281.882 124.717 281.734 125.118 281.418 125.625C281.101 126.132 280.731 126.649 280.309 127.177C279.886 127.684 279.485 128.149 279.105 128.571C278.725 128.994 278.493 129.258 278.408 129.363C278.281 129.237 278.186 129.036 278.123 128.761C278.06 128.487 278.038 128.16 278.06 127.779C278.081 127.399 278.133 126.998 278.218 126.576C278.302 126.132 278.419 125.699 278.566 125.277C277.806 126.016 277.109 126.861 276.476 127.811C275.842 128.74 275.251 129.733 274.702 130.789C274.11 132.119 273.698 133.165 273.466 133.925C273.234 134.664 273.234 135.192 273.466 135.509C273.382 135.932 273.128 136.132 272.706 136.111C272.283 136.111 271.85 135.942 271.407 135.604C270.963 135.266 270.594 134.791 270.298 134.179C270.024 133.566 269.981 132.88 270.171 132.119C270.404 131.169 270.773 130.081 271.28 128.856C271.787 127.632 272.283 126.417 272.769 125.213C272.938 124.749 273.065 124.369 273.149 124.073C273.255 123.777 273.213 123.45 273.023 123.091C273.086 122.774 273.297 122.616 273.656 122.616C274.015 122.616 274.395 122.742 274.797 122.996C275.219 123.228 275.61 123.566 275.969 124.01C276.328 124.453 276.539 124.949 276.602 125.498C277.278 124.675 277.912 123.999 278.503 123.471C279.116 122.943 279.654 122.616 280.119 122.489C280.245 122.468 280.393 122.521 280.562 122.647C280.752 122.753 280.942 122.901 281.132 123.091C281.323 123.281 281.481 123.503 281.608 123.756C281.756 123.988 281.84 124.21 281.861 124.421Z" fill="black"/>
<path d="M300.035 131.681C299.957 131.995 299.865 132.304 299.758 132.607C299.651 132.911 299.54 133.19 299.424 133.445C299.152 134.032 298.832 134.591 298.463 135.12C298.095 135.649 297.697 136.1 297.271 136.472C296.844 136.845 296.392 137.113 295.918 137.28C295.442 137.447 294.972 137.472 294.507 137.354C294.312 137.295 294.089 137.197 293.837 137.06C293.585 136.923 293.337 136.771 293.095 136.605C292.852 136.438 292.624 136.277 292.411 136.12C292.197 135.963 292.033 135.826 291.916 135.709C291.334 135.218 290.995 134.568 290.897 133.754C290.801 132.942 290.873 132.084 291.116 131.182C291.358 130.281 291.732 129.385 292.236 128.493C292.74 127.601 293.308 126.843 293.939 126.215C294.569 125.588 295.228 125.138 295.917 124.863C296.606 124.589 297.251 124.619 297.852 124.951C298.453 125.266 298.943 125.594 299.321 125.936C299.699 126.279 299.971 126.593 300.136 126.877C300.3 127.161 300.364 127.406 300.325 127.611C300.286 127.817 300.14 127.94 299.889 127.979C299.714 127.724 299.467 127.607 299.147 127.626C298.827 127.646 298.478 127.793 298.099 128.067C297.721 128.342 297.328 128.724 296.921 129.213C296.513 129.703 296.125 130.281 295.757 130.947C295.447 131.535 295.2 132.123 295.015 132.71C294.831 133.298 294.705 133.837 294.636 134.327C294.569 134.817 294.564 135.228 294.622 135.562C294.681 135.895 294.806 136.091 295.001 136.149C295.234 136.227 295.505 136.208 295.816 136.09C296.126 135.972 296.436 135.772 296.746 135.487C297.056 135.203 297.358 134.841 297.648 134.4C297.939 133.959 298.191 133.465 298.405 132.916C298.657 132.251 298.812 131.623 298.871 131.035C298.366 130.604 298.09 130.139 298.042 129.639C297.993 129.139 298.144 128.772 298.492 128.537C298.667 128.42 298.851 128.366 299.045 128.376C299.239 128.386 299.428 128.445 299.613 128.552C299.797 128.66 299.952 128.807 300.078 128.993C300.203 129.179 300.277 129.401 300.296 129.655C300.335 129.929 300.325 130.184 300.267 130.418L300.035 131.681Z" fill="black"/>
<path d="M290.092 113.148C290.298 112.528 290.458 112.027 290.576 111.645C290.695 111.264 290.691 110.822 290.565 110.318C290.633 109.976 290.782 109.778 291.013 109.725C291.243 109.672 291.493 109.736 291.759 109.917C292.026 110.098 292.293 110.381 292.561 110.765C292.829 111.15 293.044 111.602 293.206 112.122C293.367 112.643 293.454 113.208 293.468 113.817C293.48 114.427 293.364 115.055 293.119 115.701C292.677 116.881 292.19 118.189 291.66 119.623C291.129 121.056 290.607 122.513 290.091 123.992C289.576 125.471 289.078 126.901 288.6 128.281C288.122 129.662 287.717 130.896 287.386 131.984C287.055 133.072 286.809 133.95 286.647 134.617C286.485 135.285 286.461 135.623 286.573 135.632C286.757 135.677 288.462 135.853 287.752 136.534C287.043 137.214 286.454 137.535 285.987 137.496C285.556 137.461 285.171 137.233 284.831 136.814C284.49 136.395 284.178 135.985 283.892 135.585C283.572 135.153 283.413 134.597 283.416 133.916C283.419 133.235 283.494 132.582 283.644 131.957C283.738 131.53 283.939 130.845 284.248 129.899C284.557 128.953 284.919 127.875 285.336 126.663C285.753 125.452 286.199 124.17 286.675 122.819C287.151 121.467 287.608 120.165 288.048 118.911C288.487 117.658 288.888 116.518 289.251 115.49C289.614 114.464 289.894 113.682 290.092 113.148Z" fill="black"/>
<path d="M308.96 113.148C309.165 112.528 309.326 112.027 309.445 111.645C309.563 111.264 309.559 110.822 309.433 110.318C309.5 109.976 309.65 109.778 309.88 109.725C310.111 109.672 310.36 109.736 310.627 109.917C310.893 110.098 311.161 110.381 311.429 110.765C311.696 111.15 311.911 111.602 312.073 112.122C312.235 112.643 312.322 113.208 312.335 113.817C312.348 114.427 312.231 115.055 311.987 115.701C311.545 116.881 311.058 118.189 310.528 119.623C309.997 121.056 309.474 122.513 308.959 123.992C308.443 125.471 307.946 126.901 307.468 128.281C306.989 129.662 306.585 130.896 306.254 131.984C305.924 133.072 305.677 133.95 305.516 134.617C305.353 135.285 305.328 135.623 305.441 135.632C305.626 135.677 307.33 135.853 306.62 136.534C305.91 137.214 305.322 137.535 304.854 137.496C304.424 137.461 304.038 137.233 303.698 136.814C303.358 136.395 303.045 135.985 302.76 135.585C302.44 135.153 302.281 134.597 302.284 133.916C302.287 133.235 302.363 132.582 302.512 131.957C302.606 131.53 302.807 130.845 303.116 129.899C303.424 128.953 303.787 127.875 304.204 126.663C304.62 125.452 305.067 124.17 305.543 122.819C306.019 121.467 306.476 120.165 306.916 118.911C307.354 117.658 307.755 116.518 308.119 115.49C308.482 114.464 308.762 113.682 308.96 113.148Z" fill="black"/>
<path d="M309.721 121.882C309.572 121.921 309.453 121.953 309.364 121.979C309.276 122.006 309.245 122.107 309.27 122.28C309.211 122.323 309.121 122.294 309 122.195C308.879 122.093 308.759 121.958 308.638 121.787C308.517 121.617 308.404 121.425 308.298 121.209C308.192 120.992 308.117 120.787 308.075 120.593C308.032 120.398 308.03 120.23 308.07 120.089C308.109 119.947 308.215 119.865 308.386 119.839C308.699 119.793 309.042 119.74 309.417 119.68C309.792 119.62 310.165 119.552 310.536 119.473C310.907 119.397 311.265 119.322 311.61 119.247C311.955 119.174 312.252 119.097 312.5 119.017C312.749 118.936 312.675 119.015 312.806 118.945C312.939 118.876 312.304 118.19 312.249 118.134C312.159 118.034 312.249 117.634 312.658 117.829C313.067 118.024 313.388 118.239 313.621 118.476C313.835 118.693 314.012 118.931 314.152 119.19C314.293 119.449 314.419 119.692 314.533 119.92C314.662 120.172 314.701 120.372 314.648 120.523C314.594 120.672 314.508 120.781 314.385 120.847C314.306 120.896 314.153 120.951 313.926 121.01C313.699 121.069 313.435 121.131 313.135 121.197C312.833 121.264 312.512 121.331 312.17 121.4C311.829 121.468 311.501 121.534 311.185 121.599C310.869 121.662 310.581 121.72 310.321 121.772C310.061 121.823 309.862 121.86 309.721 121.882Z" fill="black"/>
<path d="M300.122 78.6135C300.139 77.9013 299.865 77.1816 299.301 76.4549C298.868 75.7658 298.187 75.2228 297.258 74.8276C296.327 74.4353 295.289 74.1797 294.142 74.0604C292.995 73.9439 291.357 73.4386 287.974 75.8783C284.591 78.3191 283.803 79.6386 282.074 81.9312C280.344 84.2242 280.129 85.312 279.601 86.6993C279.073 88.0872 279.045 89.0005 279.032 90.1867C279.018 91.3735 279.924 92.244 280.315 92.7029C280.706 93.1619 281.715 93.4424 282.519 93.3375C283.321 93.2326 284.637 92.6218 285.331 92.27C286.46 91.6963 287.878 90.1363 288.14 89.4971C288.427 88.7977 290.785 83.8864 289.025 85.0373C287.823 85.8219 287.256 87.5761 286.919 87.9284C286.583 88.2807 284.151 91.1985 283.262 90.2395C282.373 89.2798 283.449 87.3559 283.962 86.216C284.476 85.0755 286.011 82.6381 288.093 80.6215C289.602 79.16 290.692 78.8946 292.721 78.927C294.75 78.9589 293.651 85.3143 293.125 87.419C292.66 89.1604 291.915 90.7871 290.886 92.3031C289.859 93.8196 288.673 95.1287 287.339 96.2275C286.003 97.3268 284.559 98.1943 283.011 98.8283C281.462 99.464 280 99.7879 278.624 99.8001C277.486 99.8279 276.547 99.4083 275.798 98.5368C275.052 97.6664 274.55 96.5166 274.295 95.0835C274.039 93.6521 274.036 92.0243 274.294 90.2035C274.55 88.3845 275.15 86.5011 276.095 84.5551C277.26 82.3351 278.644 80.3404 280.249 78.57C281.851 76.8031 283.514 75.3498 285.234 74.2093C286.952 73.0706 288.677 72.3149 290.407 71.9434C292.134 71.5714 293.638 71.6554 294.923 72.1915C296.25 71.8322 296.89 71.3471 296.842 70.7352C296.789 70.1238 296.131 69.5049 294.864 68.8761C293.595 68.2485 291.707 67.643 289.194 67.0611C286.683 66.4828 282.673 66.2278 279.255 67.6737C275.835 69.1219 272.798 71.0307 270.15 73.4015C267.503 75.774 265.366 78.4512 263.749 81.4334C262.127 84.4201 261.233 87.2875 261.061 90.039C260.886 92.7904 260.781 95.2336 262.357 97.4015C264.443 100.79 271.02 103.333 274.224 103.511C277.429 103.688 276.319 103.676 277.46 103.647C280.162 103.515 282.706 102.981 285.096 102.046C287.485 101.111 289.609 99.9131 291.471 98.4527C293.33 96.9947 294.929 95.3431 296.272 93.505C297.609 91.665 298.647 89.7927 299.381 87.8849C299.694 87.0615 299.945 86.1714 300.141 85.2192C300.335 84.2683 300.444 83.3162 300.467 82.3664L300.122 78.6135Z" fill="#F7941E"/>
<path d="M260.989 81.1428C262.163 78.9801 263.612 76.9803 265.328 75.1392C264.421 74.1592 260.82 70.695 255.586 71.1493C249.501 71.6778 248.192 73.1793 242.182 68.8539C236.172 64.5279 237.525 61.9132 237.02 62.0691C236.515 62.225 236.772 66.9815 240.414 71.2113C244.056 75.4417 246.384 75.36 251.267 76.3017C255.475 77.113 259.143 81.713 260.08 82.974C260.354 82.3679 260.655 81.7582 260.989 81.1428Z" fill="#F7941E"/>
<path d="M269.129 72.2314C271.416 70.1852 273.995 68.4843 276.859 67.1266C276.727 66.78 274.556 61.3211 268.818 59.8915C262.891 58.4155 261.164 59.4105 256.885 53.3669C252.606 47.3233 254.735 45.2904 254.207 45.273C253.678 45.2562 252.377 49.8383 254.448 55.0225C256.519 60.2062 258.746 60.8848 263.06 63.3616C266.557 65.3695 268.513 70.3979 269.129 72.2314Z" fill="#F7941E"/>
<path d="M325.681 96.9207C320.981 93.9067 318.775 94.6497 313.826 95.1428C309.937 95.5299 303.114 91.4954 301.099 90.1255C300.446 91.4954 299.636 92.848 298.665 94.1832C297.553 95.7067 296.26 97.1004 294.792 98.3637C297.008 99.3703 306.187 103.278 311.158 101.314C316.84 99.0689 317.665 97.2563 324.66 99.6855C331.656 102.114 331.105 105.007 331.545 104.713C331.985 104.419 330.38 99.9336 325.681 96.9207Z" fill="#F7941E"/>
<path d="M282.413 65.3153C284.849 64.9763 287.25 65.2185 288.957 65.612C290.04 65.8629 291 66.1185 291.851 66.3775C292.227 65.437 294.003 60.4162 291.12 55.7216C287.924 50.5166 285.995 50.0182 287.173 42.7072C288.352 35.3962 291.296 35.4368 290.931 35.0543C290.566 34.6724 286.427 37.031 284.274 42.1816C282.122 47.3328 283.235 49.3767 284.58 54.1663C285.842 58.6603 282.793 64.6013 282.413 65.3153Z" fill="#F7941E"/>
<path d="M325.195 77.4929C320.475 75.9276 318.796 77.2622 314.736 79.1311C311.29 80.7178 303.65 78.5429 302.022 77.9327C302.037 78.0631 302.046 78.1941 302.043 78.3239L302.346 82.0761C302.326 83.0259 302.23 83.9781 302.059 84.929C301.886 85.8817 301.665 86.7707 301.389 87.5947C301.352 87.7054 301.31 87.8161 301.271 87.9268C301.337 87.9221 301.4 87.9221 301.437 87.9337C302.384 88.2235 310.24 89.1455 314.014 85.8041C318.257 82.0477 318.504 80.0757 325.018 80.4327C331.533 80.7902 331.786 83.7202 332.085 83.3151C332.385 82.9095 329.914 79.0587 325.195 77.4929Z" fill="#F7941E"/>
<path d="M259.987 97.1108C258.411 94.9429 258.515 92.4991 258.692 89.7482C258.719 89.3101 258.766 88.8691 258.831 88.4258C257.194 88.2537 252.573 88.1349 249.057 91.6079C244.711 95.9008 244.663 97.8926 237.275 98.4014C229.887 98.9102 229.26 96.0341 228.97 96.4763C228.68 96.919 231.916 100.415 237.42 101.345C242.925 102.274 244.664 100.725 249.023 98.3307C253.383 95.9362 260.452 97.9366 260.452 97.9366L260.429 97.7373C260.266 97.5315 260.117 97.3229 259.987 97.1108Z" fill="#F7941E"/>
<path d="M311.431 51.4525C306.505 54.08 306.075 56.3673 304.085 60.9268C302.097 65.4857 293.864 68.4122 295.278 68.221C296.586 68.0436 302.114 73.4915 301.559 74.9414V75.102C301.942 74.9304 302.507 74.6743 302.507 74.6743C302.507 74.6743 307.348 72.3221 308.166 66.2692C308.983 60.2163 307.805 58.6099 313.343 53.6934C318.881 48.7781 321.135 50.6713 321.094 50.144C321.054 49.6172 316.356 48.8256 311.431 51.4525Z" fill="#F7941E"/>
</g>
<defs>
<clipPath id="clip0">
<rect width="115.686" height="127.76" fill="white" transform="translate(222.035 28.4854)"/>
</clipPath>
</defs>
</svg>
