<svg width="22" height="19" viewBox="0 0 22 19" fill="none" xmlns="http://www.w3.org/2000/svg">
<path opacity="0.9" d="M21.6614 10.4793L14.0088 18.1321C13.7903 18.3505 13.4992 18.4704 13.1887 18.4704C12.8779 18.4704 12.5869 18.3504 12.3685 18.1321L11.6737 17.4371C11.4554 17.219 11.3352 16.9277 11.3352 16.6171C11.3352 16.3066 11.4554 16.0055 11.6737 15.7874L16.1381 11.3131H1.95437C1.31487 11.3131 0.80957 10.8124 0.80957 10.1728V9.19026C0.80957 8.55059 1.31487 7.99947 1.95437 7.99947H16.1888L11.6739 3.50022C11.4556 3.28177 11.3353 2.99837 11.3353 2.68775C11.3353 2.37747 11.4556 2.08994 11.6739 1.87166L12.3687 1.17892C12.5871 0.960474 12.8781 0.841429 13.1889 0.841429C13.4993 0.841429 13.7905 0.962023 14.0089 1.18047L21.6616 8.83313C21.8806 9.05227 22.001 9.3448 22.0001 9.65576C22.0008 9.96776 21.8806 10.2605 21.6614 10.4793Z" fill="#F10A57"/>
</svg>
