<svg width="166" height="44" viewBox="0 0 166 44" fill="none" xmlns="http://www.w3.org/2000/svg">
<path d="M31.0049 30.94C31.0049 35.0287 29.4623 37.9735 26.3762 39.772C23.2885 41.5705 19.38 42.4693 14.6458 42.4693H0.0478516V3.84485H13.5094C18.0916 3.84485 21.8896 4.77358 24.8992 6.62854C27.9089 8.48434 29.4149 11.2672 29.4149 14.978C29.4149 16.342 29.0918 17.5722 28.4497 18.6688C27.8059 19.7686 26.9344 20.8668 25.8363 21.9642C27.4279 23.0624 28.6856 24.3882 29.6151 25.9408C30.5405 27.4942 31.0049 29.1589 31.0049 30.94ZM18.7354 15.4888C18.7354 14.3533 18.242 13.4819 17.2592 12.8754C16.2723 12.2699 14.9117 11.9675 13.1688 11.9675H10.386V18.4993H12.7161C14.4182 18.4993 15.8487 18.2443 17.0042 17.7326C18.1581 17.2217 18.7354 16.4749 18.7354 15.4888ZM20.327 30.7132C20.327 29.4247 19.8336 28.4204 18.8492 27.7019C17.8648 26.9833 16.5 26.6228 14.7588 26.6228H10.386V34.3475H14.8718C16.5398 34.3475 17.864 34.0352 18.8484 33.4096C19.8336 32.7858 20.327 31.8861 20.327 30.7132Z" fill="#F6F8FF"/>
<path d="M48.1023 13.9562C50.9417 13.9562 53.3465 14.6008 55.3161 15.8867C57.2841 17.1743 58.7702 18.8972 59.7745 21.0562C60.7772 23.2152 61.2806 25.6201 61.2806 28.2701V31.2797H44.5228C44.9008 32.4551 45.6118 33.3731 46.6527 34.0351C47.6928 34.6981 49.0667 35.0287 50.7705 35.0287C53.3831 35.0287 55.901 34.404 58.325 33.1538L61.2225 40.1408C60.0869 40.974 58.4462 41.6751 56.3097 42.2417C54.1698 42.8107 51.9825 43.094 49.7488 43.094C46.5298 43.094 43.6788 42.5449 41.2 41.4467C38.7195 40.3502 36.7773 38.7112 35.3767 36.5339C33.9762 34.3566 33.2759 31.7532 33.2759 28.7236C33.2759 25.7331 33.9197 23.1197 35.2081 20.8851C36.4949 18.6513 38.2651 16.9376 40.5188 15.7439C42.7708 14.5518 45.3003 13.9562 48.1023 13.9562ZM47.8182 22.2483C46.8704 22.2483 46.0289 22.6462 45.2904 23.442C44.5502 24.237 44.2013 25.1458 44.2387 26.1675H51.3952C51.3952 25.2222 51.092 24.3317 50.4864 23.4977C49.88 22.6653 48.9912 22.2483 47.8182 22.2483Z" fill="#F6F8FF"/>
<path d="M74.7418 22.3621C73.8314 22.3621 72.7249 22.5241 71.419 22.8447C70.1115 23.1679 68.9269 23.5558 67.8694 24.0085L65.1422 16.5696C66.7322 15.8494 68.6253 15.233 70.8225 14.7221C73.0181 14.2112 75.1754 13.9562 77.2979 13.9562C80.9696 13.9562 83.7907 14.9779 85.7611 17.0223C87.7307 19.0683 88.7159 21.8703 88.7159 25.4299V42.4693H83.7168L80.7619 39.6299C78.9444 41.9401 76.8809 43.0948 74.5707 43.0948C71.1631 43.0948 68.5888 42.2425 66.846 40.5396C65.1048 38.835 64.2334 36.5248 64.2334 33.609C64.2334 28.2318 67.8287 25.542 75.0259 25.542H78.3197C78.1668 24.4837 77.7814 23.6879 77.1567 23.1571C76.5295 22.6279 75.7254 22.3621 74.7418 22.3621ZM75.1946 31.2232C74.515 31.2232 73.9551 31.4325 73.5198 31.8487C73.0837 32.2657 72.8661 32.7949 72.8661 33.4387C72.8661 34.0069 73.0463 34.4704 73.406 34.8293C73.7649 35.1915 74.211 35.3693 74.741 35.3693C75.9139 35.3693 77.1259 34.8584 78.3753 33.8358V31.2232H75.1946Z" fill="#F6F8FF"/>
<path d="M106.492 16.0571H113.706L114.673 24.1806H106.492V30.9957C106.492 32.1312 106.784 33.0317 107.373 33.693C107.961 34.3567 108.746 34.6882 109.729 34.6882C111.094 34.6882 112.417 34.3285 113.706 33.6082L116.66 40.6518C115.94 41.2574 114.814 41.8164 113.28 42.3273C111.746 42.8382 110.336 43.0949 109.048 43.0949C106.777 43.0949 104.656 42.6779 102.688 41.8447C100.717 41.0123 99.1384 39.7721 97.9439 38.1248C96.751 36.4775 96.1562 34.4796 96.1562 32.1312V24.1806H91.8955V16.0571H96.1562V8.61648L106.493 7.19763V16.0571H106.492Z" fill="#F6F8FF"/>
<path d="M130.405 14.9207V42.4693H120.067V14.9207H130.405Z" fill="#F6F8FF"/>
<path d="M130.89 6.46073C130.89 7.97594 130.331 9.28181 129.214 10.38C128.096 11.479 126.761 12.0265 125.21 12.0265C123.695 12.0265 122.389 11.479 121.29 10.38C120.192 9.28181 119.644 7.97594 119.644 6.46073C119.644 4.90815 120.192 3.5732 121.29 2.4559C122.388 1.33944 123.695 0.779541 125.21 0.779541C126.761 0.779541 128.097 1.33861 129.214 2.4559C130.331 3.5732 130.89 4.90815 130.89 6.46073Z" fill="#DB4535"/>
<path d="M151.989 22.3621C151.383 22.3621 150.53 22.5241 149.434 22.8447C148.334 23.1679 147.331 23.5367 146.424 23.9537V42.4693H136.086V14.9206H142.221L144.037 17.7608C148.051 15.2612 151.8 14.0118 155.284 14.0118C158.616 14.0118 161.115 14.9871 162.782 16.9376C164.447 18.8889 165.281 21.4724 165.281 24.6914V42.4685H154.943V25.655C154.943 24.7105 154.716 23.9238 154.262 23.2991C153.807 22.6744 153.049 22.3621 151.989 22.3621Z" fill="#F6F8FF"/>
</svg>
