<svg width="211" height="42" viewBox="0 0 211 42" fill="none" xmlns="http://www.w3.org/2000/svg">
<path d="M12.478 7.8V8.34L10.318 8.88V32.1H18.058C18.058 31.164 18.178 30.348 18.418 29.652C18.658 28.956 18.922 28.368 19.21 27.888C19.546 27.336 19.942 26.88 20.398 26.52H21.478V33H2.21797V32.46L4.37797 31.92V8.88L2.21797 8.34V7.8H12.478ZM40.4075 20.4C40.4075 18.024 40.2395 16.044 39.9035 14.46C39.5915 12.852 39.1715 11.568 38.6435 10.608C38.1395 9.648 37.5635 8.976 36.9155 8.592C36.2675 8.184 35.6315 7.98 35.0075 7.98C34.3835 7.98 33.7475 8.184 33.0995 8.592C32.4515 8.976 31.8635 9.648 31.3355 10.608C30.8315 11.568 30.4115 12.852 30.0755 14.46C29.7635 16.044 29.6075 18.024 29.6075 20.4C29.6075 22.776 29.7635 24.768 30.0755 26.376C30.4115 27.96 30.8315 29.232 31.3355 30.192C31.8635 31.152 32.4515 31.836 33.0995 32.244C33.7475 32.628 34.3835 32.82 35.0075 32.82C35.6315 32.82 36.2675 32.628 36.9155 32.244C37.5635 31.836 38.1395 31.152 38.6435 30.192C39.1715 29.232 39.5915 27.96 39.9035 26.376C40.2395 24.768 40.4075 22.776 40.4075 20.4ZM46.7075 20.4C46.7075 22.512 46.4195 24.384 45.8435 26.016C45.2915 27.648 44.4995 29.028 43.4675 30.156C42.4595 31.26 41.2355 32.1 39.7955 32.676C38.3555 33.252 36.7595 33.54 35.0075 33.54C33.2555 33.54 31.6595 33.252 30.2195 32.676C28.7795 32.1 27.5435 31.26 26.5115 30.156C25.5035 29.028 24.7115 27.648 24.1355 26.016C23.5835 24.384 23.3075 22.512 23.3075 20.4C23.3075 18.288 23.5835 16.416 24.1355 14.784C24.7115 13.152 25.5035 11.784 26.5115 10.68C27.5435 9.552 28.7795 8.7 30.2195 8.124C31.6595 7.548 33.2555 7.26 35.0075 7.26C36.7595 7.26 38.3555 7.548 39.7955 8.124C41.2355 8.7 42.4595 9.552 43.4675 10.68C44.4995 11.784 45.2915 13.152 45.8435 14.784C46.4195 16.416 46.7075 18.288 46.7075 20.4ZM61.4759 32.28C62.0279 32.28 62.4959 32.136 62.8799 31.848C63.2879 31.536 63.6239 31.2 63.8879 30.84C64.1999 30.408 64.4759 29.928 64.7159 29.4V21.12L62.5559 20.58V20.04H72.8159V20.58L70.6559 21.12V33.18H70.1159C69.0599 33.18 68.2079 33.036 67.5599 32.748C66.9359 32.436 66.4559 32.1 66.1199 31.74C65.7119 31.308 65.4239 30.828 65.2559 30.3C64.9439 30.924 64.5479 31.464 64.0679 31.92C63.6599 32.328 63.1199 32.7 62.4479 33.036C61.7759 33.372 60.9719 33.54 60.0359 33.54C58.6919 33.54 57.4079 33.252 56.1839 32.676C54.9599 32.1 53.8799 31.26 52.9439 30.156C52.0319 29.028 51.2999 27.648 50.7479 26.016C50.2199 24.384 49.9559 22.512 49.9559 20.4C49.9559 18.288 50.2319 16.416 50.7839 14.784C51.3359 13.152 52.1159 11.784 53.1239 10.68C54.1319 9.552 55.3319 8.7 56.7239 8.124C58.1159 7.548 59.6519 7.26 61.3319 7.26C62.1719 7.26 62.9399 7.392 63.6359 7.656C64.3559 7.896 64.9679 8.16 65.4719 8.448C66.0719 8.784 66.5999 9.168 67.0559 9.6C67.2479 9.288 67.4519 9.012 67.6679 8.772C67.9079 8.508 68.1239 8.292 68.3159 8.124C68.5559 7.932 68.7959 7.764 69.0359 7.62H69.9359V14.46H68.4959C68.1599 13.308 67.6919 12.264 67.0919 11.328C66.5879 10.536 65.9159 9.816 65.0759 9.168C64.2359 8.496 63.2159 8.16 62.0159 8.16C61.2959 8.16 60.5879 8.364 59.8919 8.772C59.1959 9.156 58.5719 9.828 58.0199 10.788C57.4919 11.724 57.0599 12.984 56.7239 14.568C56.4119 16.128 56.2559 18.072 56.2559 20.4C56.2559 22.752 56.3999 24.696 56.6879 26.232C56.9759 27.744 57.3599 28.956 57.8399 29.868C58.3439 30.756 58.9079 31.38 59.5319 31.74C60.1559 32.1 60.8039 32.28 61.4759 32.28ZM92.263 20.4C92.263 18.024 92.095 16.044 91.759 14.46C91.447 12.852 91.027 11.568 90.499 10.608C89.995 9.648 89.419 8.976 88.771 8.592C88.123 8.184 87.487 7.98 86.863 7.98C86.239 7.98 85.603 8.184 84.955 8.592C84.307 8.976 83.719 9.648 83.191 10.608C82.687 11.568 82.267 12.852 81.931 14.46C81.619 16.044 81.463 18.024 81.463 20.4C81.463 22.776 81.619 24.768 81.931 26.376C82.267 27.96 82.687 29.232 83.191 30.192C83.719 31.152 84.307 31.836 84.955 32.244C85.603 32.628 86.239 32.82 86.863 32.82C87.487 32.82 88.123 32.628 88.771 32.244C89.419 31.836 89.995 31.152 90.499 30.192C91.027 29.232 91.447 27.96 91.759 26.376C92.095 24.768 92.263 22.776 92.263 20.4ZM98.563 20.4C98.563 22.512 98.275 24.384 97.699 26.016C97.147 27.648 96.355 29.028 95.323 30.156C94.315 31.26 93.091 32.1 91.651 32.676C90.211 33.252 88.615 33.54 86.863 33.54C85.111 33.54 83.515 33.252 82.075 32.676C80.635 32.1 79.399 31.26 78.367 30.156C77.359 29.028 76.567 27.648 75.991 26.016C75.439 24.384 75.163 22.512 75.163 20.4C75.163 18.288 75.439 16.416 75.991 14.784C76.567 13.152 77.359 11.784 78.367 10.68C79.399 9.552 80.635 8.7 82.075 8.124C83.515 7.548 85.111 7.26 86.863 7.26C88.615 7.26 90.211 7.548 91.651 8.124C93.091 8.7 94.315 9.552 95.323 10.68C96.355 11.784 97.147 13.152 97.699 14.784C98.275 16.416 98.563 18.288 98.563 20.4ZM114.231 20.04C114.327 19.56 114.459 19.104 114.627 18.672C114.795 18.216 114.975 17.82 115.167 17.484C115.383 17.1 115.611 16.752 115.851 16.44H116.931V24.54H115.851C115.611 24.228 115.383 23.88 115.167 23.496C114.975 23.16 114.795 22.776 114.627 22.344C114.459 21.912 114.327 21.444 114.231 20.94H110.091V31.92L112.251 32.46V33H101.991V32.46L104.151 31.92V8.88L101.991 8.34V7.8H121.251V14.28H120.171C119.715 13.92 119.319 13.464 118.983 12.912C118.695 12.432 118.431 11.856 118.191 11.184C117.951 10.488 117.831 9.66 117.831 8.7H110.091V20.04H114.231ZM140.181 20.4C140.181 18.024 140.013 16.044 139.677 14.46C139.365 12.852 138.945 11.568 138.417 10.608C137.913 9.648 137.337 8.976 136.689 8.592C136.041 8.184 135.405 7.98 134.781 7.98C134.157 7.98 133.521 8.184 132.873 8.592C132.225 8.976 131.637 9.648 131.109 10.608C130.605 11.568 130.185 12.852 129.849 14.46C129.537 16.044 129.381 18.024 129.381 20.4C129.381 22.776 129.537 24.768 129.849 26.376C130.185 27.96 130.605 29.232 131.109 30.192C131.637 31.152 132.225 31.836 132.873 32.244C133.521 32.628 134.157 32.82 134.781 32.82C135.405 32.82 136.041 32.628 136.689 32.244C137.337 31.836 137.913 31.152 138.417 30.192C138.945 29.232 139.365 27.96 139.677 26.376C140.013 24.768 140.181 22.776 140.181 20.4ZM146.481 20.4C146.481 22.512 146.193 24.384 145.617 26.016C145.065 27.648 144.273 29.028 143.241 30.156C142.233 31.26 141.009 32.1 139.569 32.676C138.129 33.252 136.533 33.54 134.781 33.54C133.029 33.54 131.433 33.252 129.993 32.676C128.553 32.1 127.317 31.26 126.285 30.156C125.277 29.028 124.485 27.648 123.909 26.016C123.357 24.384 123.081 22.512 123.081 20.4C123.081 18.288 123.357 16.416 123.909 14.784C124.485 13.152 125.277 11.784 126.285 10.68C127.317 9.552 128.553 8.7 129.993 8.124C131.433 7.548 133.029 7.26 134.781 7.26C136.533 7.26 138.129 7.548 139.569 8.124C141.009 8.7 142.233 9.552 143.241 10.68C144.273 11.784 145.065 13.152 145.617 14.784C146.193 16.416 146.481 18.288 146.481 20.4ZM160.169 7.8V8.34L158.009 8.88V32.1H165.749C165.749 31.164 165.869 30.348 166.109 29.652C166.349 28.956 166.613 28.368 166.901 27.888C167.237 27.336 167.633 26.88 168.089 26.52H169.169V33H149.909V32.46L152.069 31.92V8.88L149.909 8.34V7.8H160.169ZM171.882 8.34V7.8H182.142V8.34L179.982 8.88V31.92L182.142 32.46V33H171.882V32.46L174.042 31.92V8.88L171.882 8.34ZM202.654 20.4C202.654 18.024 202.486 16.044 202.15 14.46C201.838 12.852 201.418 11.568 200.89 10.608C200.386 9.648 199.81 8.976 199.162 8.592C198.514 8.184 197.878 7.98 197.254 7.98C196.63 7.98 195.994 8.184 195.346 8.592C194.698 8.976 194.11 9.648 193.582 10.608C193.078 11.568 192.658 12.852 192.322 14.46C192.01 16.044 191.854 18.024 191.854 20.4C191.854 22.776 192.01 24.768 192.322 26.376C192.658 27.96 193.078 29.232 193.582 30.192C194.11 31.152 194.698 31.836 195.346 32.244C195.994 32.628 196.63 32.82 197.254 32.82C197.878 32.82 198.514 32.628 199.162 32.244C199.81 31.836 200.386 31.152 200.89 30.192C201.418 29.232 201.838 27.96 202.15 26.376C202.486 24.768 202.654 22.776 202.654 20.4ZM208.954 20.4C208.954 22.512 208.666 24.384 208.09 26.016C207.538 27.648 206.746 29.028 205.714 30.156C204.706 31.26 203.482 32.1 202.042 32.676C200.602 33.252 199.006 33.54 197.254 33.54C195.502 33.54 193.906 33.252 192.466 32.676C191.026 32.1 189.79 31.26 188.758 30.156C187.75 29.028 186.958 27.648 186.382 26.016C185.83 24.384 185.554 22.512 185.554 20.4C185.554 18.288 185.83 16.416 186.382 14.784C186.958 13.152 187.75 11.784 188.758 10.68C189.79 9.552 191.026 8.7 192.466 8.124C193.906 7.548 195.502 7.26 197.254 7.26C199.006 7.26 200.602 7.548 202.042 8.124C203.482 8.7 204.706 9.552 205.714 10.68C206.746 11.784 207.538 13.152 208.09 14.784C208.666 16.416 208.954 18.288 208.954 20.4Z" fill="#F6F8FF"/>
</svg>
