<svg width="157" height="55" viewBox="0 0 157 55" fill="none" xmlns="http://www.w3.org/2000/svg">
<path d="M22.9105 0.493031C27.7446 0.493031 31.9064 2.18159 35.3926 5.55954C38.8796 8.94002 40.6235 13.3969 40.6235 18.9351C40.6235 24.6248 38.9057 29.3246 35.4684 33.0339C32.0345 36.7423 27.8727 38.5966 22.9863 38.5966C18.8641 38.5966 15.5044 37.2511 12.9079 34.5577V48.3503C12.9079 49.4688 13.4294 50.472 14.4723 51.3608C15.5153 52.2497 16.0385 52.9224 16.0385 53.3807V53.6086C16.0385 54.3704 15.4774 54.7514 14.3586 54.7514H2.75356C1.63307 54.7514 1.07367 54.3704 1.07367 53.6086V53.3807C1.07367 52.9224 1.55556 52.2488 2.52525 51.3608C3.49072 50.472 3.97514 49.4688 3.97514 48.3503V11.0095C3.97514 9.94323 3.42753 9.00225 2.33316 8.18909C1.23879 7.3776 0.692871 6.7158 0.692871 6.20873V5.90348C0.692871 5.24504 1.15033 4.71106 2.06694 4.30406L9.09147 0.874807C10.7714 0.0111869 11.6105 0.416507 11.6105 2.09329L11.5346 6.28441C12.6046 4.45626 14.1311 3.03428 16.116 2.01761C18.1009 1.00094 20.3637 0.493031 22.9105 0.493031ZM21.9181 35.7013C24.9721 35.7013 27.3495 34.4811 29.0564 32.0433C30.7607 29.6047 31.6133 26.1746 31.6133 21.7556C31.6133 16.2686 30.6082 11.8353 28.5972 8.45734C26.5862 5.07938 23.9518 3.38914 20.6957 3.38914C18.7605 3.38914 17.0427 4.08878 15.5423 5.4847C14.0401 6.8823 13.1631 8.64822 12.9079 10.7816V24.8804C12.9079 27.6756 13.8245 30.1773 15.6577 32.3881C17.4884 34.5963 19.5752 35.7013 21.9181 35.7013Z" fill="#F6F8FF"/>
<path d="M69.6432 26.632C70.051 26.0736 70.5733 25.8701 71.2094 26.0224C71.8446 26.1754 72.1378 26.632 72.088 27.3939C71.6786 30.0873 70.1023 32.6269 67.3542 35.0151C64.6044 37.405 61.018 38.5974 56.5883 38.5974C51.3969 38.5974 47.0826 36.8205 43.6471 33.2626C40.2115 29.7064 38.4937 25.0326 38.4937 19.2395C38.4937 13.856 40.2612 9.38317 43.8004 5.82778C47.3379 2.27155 51.6505 0.493011 56.7416 0.493011C61.3229 0.493011 64.847 1.6232 67.3171 3.88442C69.7839 6.1448 71.0198 8.74912 71.0198 11.6957C71.0198 14.337 69.7215 16.1155 67.1267 17.0304L48.6488 23.8124C49.6143 26.4554 51.0642 28.5131 52.9993 29.9864C54.9345 31.4597 57.2235 32.1955 59.8705 32.1955C62.1612 32.1955 64.1587 31.6767 65.8647 30.6339C67.5699 29.5937 68.8302 28.2583 69.6432 26.632ZM55.2142 3.38912C52.8199 3.38912 50.9134 4.53193 49.4862 6.81837C48.0616 9.10482 47.3506 12.1035 47.3506 15.8103C47.3506 17.5384 47.5022 19.1638 47.808 20.6884L60.4813 15.2015C61.8057 14.5918 62.467 13.5247 62.467 12.0001C62.467 10.1719 61.7661 8.27989 60.3676 6.32224C58.9674 4.36795 57.2496 3.38912 55.2142 3.38912Z" fill="#F6F8FF"/>
<path d="M88.4369 0.493035C90.6257 0.493035 92.3435 1.1027 93.5903 2.32118C94.8372 3.54135 95.4614 5.06593 95.4614 6.89408C95.4614 10.0954 94.1371 11.6965 91.4909 11.6965C90.3704 11.6965 89.5069 11.3913 88.8944 10.7816C88.2836 10.172 87.9019 9.48578 87.7495 8.72391C87.5978 7.96204 87.2406 7.27502 86.6812 6.66619C86.1201 6.05653 85.3568 5.75128 84.3905 5.75128C82.7106 5.75128 81.4124 6.66619 80.4975 8.49602C79.5792 10.3242 79.1217 12.561 79.1217 15.2023V31.5119C79.1217 32.6286 79.7072 33.6209 80.8774 34.4828C82.0493 35.3481 82.6331 36.0074 82.6331 36.4649V36.7684C82.6331 37.4815 82.0998 37.8364 81.0308 37.8364H69.1966C68.1266 37.8364 67.5942 37.4815 67.5942 36.7684V36.464C67.5942 36.0057 68.0761 35.3473 69.0441 34.482C70.0095 33.62 70.4957 32.6278 70.4957 31.511V11.0095C70.4957 9.84149 69.948 8.8366 68.8537 7.99904C67.7593 7.16149 67.2134 6.51231 67.2134 6.05569V5.8278C67.2134 5.26943 67.6708 4.73545 68.5875 4.2267L76.0711 0.797446C77.5454 0.0860318 78.2843 0.519944 78.2843 2.0933V8.03689C80.0122 3.00821 83.3973 0.493035 88.4369 0.493035Z" fill="#F6F8FF"/>
<path d="M110.068 38.5217C105.335 38.5217 101.49 37.6203 98.5401 35.8148C95.5864 34.0127 94.1104 31.9928 94.1104 29.756C94.1104 28.641 94.4541 27.7757 95.1424 27.166C95.8307 26.5563 96.7566 26.2511 97.9284 26.2511C98.947 26.2511 99.7996 26.5832 100.487 27.2417C101.174 27.9035 101.72 28.7166 102.129 29.6803C102.535 30.6457 103.006 31.5985 103.541 32.5378C104.076 33.4787 104.889 34.2785 105.984 34.9386C107.079 35.5987 108.439 35.9292 110.068 35.9292C112.155 35.9292 113.848 35.4213 115.146 34.4046C116.444 33.3879 117.093 31.9407 117.093 30.0604C117.093 28.1818 116.33 26.7212 114.802 25.6784C113.275 24.6374 111.429 23.862 109.267 23.3541C107.104 22.8462 104.927 22.2618 102.74 21.6017C100.549 20.9415 98.6917 19.7609 97.1652 18.0572C95.6378 16.356 94.8745 14.1074 94.8745 11.3131C94.8745 8.21346 96.2747 5.63521 99.0734 3.57749C101.872 1.51977 105.461 0.491333 109.839 0.491333C114.369 0.491333 118.047 1.41802 120.872 3.27224C123.698 5.12814 125.109 7.2237 125.109 9.55976C125.109 10.5251 124.778 11.3139 124.117 11.9236C123.455 12.5332 122.615 12.8385 121.598 12.8385C120.631 12.8385 119.827 12.508 119.192 11.8462C118.556 11.1878 118.021 10.3864 117.59 9.44624C117.157 8.50693 116.698 7.56763 116.214 6.62581C115.731 5.6865 114.994 4.88679 114.001 4.22499C113.009 3.56656 111.773 3.2344 110.298 3.2344C108.466 3.2344 106.94 3.79445 105.716 4.91118C104.495 6.0296 103.885 7.42552 103.885 9.1023C103.885 10.9826 104.648 12.4559 106.175 13.5222C107.703 14.5901 109.547 15.3898 111.71 15.923C113.872 16.4569 116.049 17.0548 118.238 17.7133C120.427 18.3751 122.284 19.5431 123.811 21.2199C125.338 22.895 126.102 25.1318 126.102 27.9262C126.102 30.9745 124.639 33.5023 121.711 35.5096C118.784 37.5168 114.904 38.5217 110.068 38.5217Z" fill="url(#paint0_linear)"/>
<path d="M153.091 28.3719C153.565 27.8673 154.108 27.7311 154.72 27.9632C155.332 28.1928 155.566 28.6839 155.419 29.4348C154.677 32.0542 152.793 34.3768 149.767 36.4018C146.739 38.4284 143.031 39.1642 138.636 38.6092C133.486 37.9608 129.427 35.6576 126.466 31.6977C123.504 27.7412 122.387 22.8874 123.113 17.1406C123.79 11.7991 126.105 7.5853 130.062 4.49914C134.017 1.41298 138.521 0.187765 143.571 0.823497C148.116 1.397 151.471 2.96026 153.637 5.51076C155.801 8.06294 156.7 10.801 156.329 13.7248C155.998 16.3459 154.487 17.9471 151.796 18.5306L132.613 22.9488C133.241 25.6902 134.421 27.9136 136.157 29.6173C137.89 31.3218 140.07 32.3385 142.696 32.6689C144.968 32.9565 147.016 32.6883 148.839 31.8692C150.662 31.0502 152.078 29.883 153.091 28.3719ZM141.692 3.50686C139.318 3.20665 137.279 4.10307 135.579 6.1919C133.877 8.28073 132.795 11.1668 132.33 14.8474C132.114 16.5604 132.06 18.1918 132.173 19.7432L145.435 15.8834C146.825 15.4436 147.615 14.469 147.806 12.9571C148.034 11.1424 147.578 9.17799 146.437 7.06056C145.293 4.94734 143.711 3.75997 141.692 3.50686Z" fill="url(#paint1_linear)"/>
<defs>
<linearGradient id="paint0_linear" x1="94.1109" y1="19.5074" x2="126.102" y2="19.5074" gradientUnits="userSpaceOnUse">
<stop stop-color="#CC3232"/>
<stop offset="0.4075" stop-color="#BC2B43"/>
<stop offset="1" stop-color="#9E1F63"/>
</linearGradient>
<linearGradient id="paint1_linear" x1="122.898" y1="19.7243" x2="156.41" y2="19.7243" gradientUnits="userSpaceOnUse">
<stop stop-color="#CC3232"/>
<stop offset="0.4075" stop-color="#BC2B43"/>
<stop offset="1" stop-color="#9E1F63"/>
</linearGradient>
</defs>
</svg>
