<svg width="247" height="45" viewBox="0 0 247 45" fill="none" xmlns="http://www.w3.org/2000/svg">
<path d="M0.0398937 31.4835C0.260894 29.9235 0.635894 28.4635 1.15489 27.0875C1.67189 25.7155 2.28089 24.5345 2.98489 23.5305C3.69189 22.5295 4.46889 21.7705 5.32089 21.2505C6.17689 20.7305 7.04589 20.5455 7.93389 20.6945C8.67689 20.8065 9.24589 21.1125 9.63089 21.6125C10.0199 22.1125 10.3019 22.6945 10.4939 23.3625C10.6769 24.0305 10.7719 24.7175 10.7719 25.4225C10.7719 26.1275 10.7339 26.7185 10.6569 27.1985C10.5119 28.2755 10.5659 29.1475 10.8289 29.8115C11.0849 30.4795 11.4739 30.9535 11.9939 31.2295C12.5159 31.5085 13.0979 31.6215 13.7439 31.5655C14.3949 31.5085 15.0169 31.3255 15.6099 31.0095C16.2029 30.6935 16.7269 30.2585 17.1919 29.7015C17.6559 29.1465 17.9419 28.5135 18.0579 27.8105C18.1689 27.0335 17.9889 26.2895 17.5249 25.5845C17.0599 24.8845 16.4419 24.1935 15.6629 23.5285C14.8859 22.8645 14.0029 22.1855 13.0229 21.4975C12.0389 20.8135 11.1049 20.0795 10.2129 19.3035C9.06389 18.2635 8.19589 17.0705 7.60289 15.7175C7.00789 14.3645 6.87689 12.5755 7.20789 10.3505C7.39589 9.23849 7.80489 8.01549 8.43289 6.68249C9.06389 5.34949 9.91989 4.15149 10.9929 3.09649C12.0649 2.03949 13.3819 1.20449 14.9409 0.595487C16.4979 -0.0165129 18.2909 -0.158513 20.3349 0.177487C21.3749 0.326487 22.3719 0.622487 23.3349 1.06649C24.3029 1.51049 25.1149 2.04049 25.7869 2.65249C26.4479 3.26349 26.9159 3.92249 27.1739 4.62649C27.4329 5.33049 27.3759 6.05449 27.0039 6.79449C26.7409 7.27449 26.3719 7.60049 25.8959 7.76449C25.4129 7.93249 24.8789 8.03549 24.2849 8.07449C23.6879 8.11049 23.0659 8.11649 22.4179 8.09949C21.7679 8.08049 21.1779 8.11049 20.6419 8.18249C20.1049 8.25749 19.6489 8.42249 19.2799 8.68249C18.9079 8.94249 18.6689 9.37049 18.5589 9.96249C18.4469 10.8145 18.6339 11.6405 19.1119 12.4375C19.5909 13.2325 20.2369 14.0755 21.0309 14.9685C21.8339 15.8565 22.6889 16.8395 23.6179 17.9125C24.5449 18.9925 25.3679 20.2325 26.0879 21.6415C26.8159 23.0495 27.3459 24.6675 27.6739 26.5045C28.0109 28.3405 27.9869 30.4425 27.6209 32.8165C27.4739 33.8165 26.9789 35.0405 26.1469 36.4845C25.3109 37.9325 24.1719 39.2845 22.7249 40.5445C21.2769 41.8055 19.5199 42.8065 17.4509 43.5485C15.3679 44.2855 12.9989 44.4545 10.3299 44.0465C8.39889 43.7475 6.75989 43.1185 5.40789 42.1575C4.05289 41.1935 2.95989 40.1005 2.12789 38.8765C1.29489 37.6535 0.705893 36.3725 0.375893 35.0405C0.0398932 33.7055 -0.0671063 32.5165 0.0398937 31.4835Z" fill="#ED0351"/>
<path d="M43.1881 34.3065C43.0031 34.4545 42.7201 34.9645 42.3521 35.8335C41.9801 36.7055 41.5091 37.6695 40.9371 38.7255C40.3621 39.7855 39.6741 40.7855 38.8771 41.7305C38.0851 42.6745 37.1621 43.3125 36.1221 43.6485C35.2371 43.9445 34.3551 44.0265 33.4871 43.8985C32.6121 43.7695 31.8321 43.4245 31.1501 42.8695C30.4651 42.3125 29.9001 41.5435 29.4501 40.5625C29.0051 39.5825 28.7651 38.3675 28.7321 36.9195C28.6961 36.1795 28.7181 35.2535 28.8141 34.1385C28.9031 33.0275 29.0351 31.8325 29.2021 30.5525C29.3711 29.2775 29.5961 27.9665 29.8711 26.6345C30.1471 25.2985 30.4661 24.0275 30.8151 22.8235C31.1681 21.6185 31.5621 20.5355 32.0131 19.5715C32.4561 18.6075 32.9401 17.8675 33.4531 17.3475C34.0131 16.7915 34.6151 16.4495 35.2601 16.3175C35.9101 16.1885 36.5401 16.2355 37.1521 16.4565C37.7641 16.6805 38.3111 17.0875 38.7951 17.6805C39.2751 18.2725 39.6301 19.0525 39.8511 20.0165C40.1501 21.3165 40.2201 22.7415 40.0731 24.2985C39.9241 25.8535 39.7141 27.3575 39.4331 28.8015C39.1581 30.2465 38.8931 31.5625 38.6541 32.7505C38.4141 33.9355 38.3121 34.8075 38.3481 35.3625C38.4271 35.3625 38.6011 35.1125 38.8771 34.6125C39.1571 34.1125 39.4921 33.4535 39.8771 32.6375C40.2671 31.8225 40.6771 30.9325 41.1051 29.9695C41.5301 29.0045 41.9371 28.0805 42.3231 27.1885C42.7181 26.3005 43.0561 25.5205 43.3551 24.8525C43.6481 24.1845 43.8521 23.7405 43.9641 23.5205C44.2591 22.9995 44.6521 22.6285 45.1361 22.4045C45.6131 22.1835 46.0971 22.1375 46.5801 22.2655C47.0571 22.3975 47.5081 22.7135 47.9121 23.2105C48.3201 23.7145 48.6001 24.4075 48.7471 25.2975C48.8961 26.0765 49.0441 26.8895 49.1911 27.7445C49.3371 28.5965 49.4881 29.3735 49.6391 30.0765C49.7851 30.8925 49.9501 31.6925 50.1401 32.4695C50.3201 30.0615 50.5071 27.8565 50.6891 25.8525C50.7671 25.0005 50.8541 24.1595 50.9451 23.3235C51.0351 22.4905 51.1101 21.7235 51.1691 21.0165C51.2261 20.3115 51.2791 19.7095 51.3331 19.2095C51.3901 18.7095 51.4371 18.3835 51.4701 18.2355C51.6161 17.6075 51.9631 17.1835 52.5021 16.9555C53.0351 16.7345 53.5821 16.8105 54.1411 17.1835C54.9211 17.6985 55.4851 18.4695 55.8361 19.4895C56.1901 20.5075 56.4581 21.8685 56.6421 23.5735C56.7511 24.4645 56.7931 25.5375 56.7511 26.7985C56.7141 28.0585 56.5951 29.3745 56.3921 30.7455C56.1911 32.1185 55.9011 33.4795 55.5311 34.8355C55.1611 36.1855 54.6681 37.4025 54.0561 38.4765C53.4471 39.5515 52.7191 40.4205 51.8911 41.0885C51.0551 41.7595 50.0811 42.0885 48.9691 42.0885C47.8571 42.0885 46.9481 41.7105 46.2441 40.9525C45.5431 40.1925 44.9741 39.3375 44.5501 38.3895C44.1251 37.4485 43.8071 36.5665 43.6021 35.7505C43.4021 34.9355 43.2601 34.4555 43.1881 34.3065Z" fill="#ED0351"/>
<path d="M76.3811 24.1855C76.3811 26.0415 75.8981 27.5405 74.9341 28.6915C73.9701 29.8385 72.8571 30.6915 71.6001 31.2475C70.3371 31.8035 69.1041 32.0725 67.9031 32.0535C66.6971 32.0375 65.8481 31.7865 65.3731 31.3075C65.2961 31.5275 65.2371 31.9525 65.2041 32.5835C65.1651 33.2155 65.2241 33.8635 65.3731 34.5275C65.5201 35.1955 65.8071 35.7875 66.2311 36.3075C66.6591 36.8275 67.2801 37.0875 68.0921 37.0875C68.5441 37.0875 69.0251 36.8825 69.5391 36.4755C70.0601 36.0685 70.5891 35.6495 71.1251 35.2205C71.6621 34.7965 72.1761 34.4615 72.6531 34.2245C73.1361 33.9845 73.5401 34.0275 73.8801 34.3635C74.2091 34.6955 74.2841 35.2875 74.1011 36.1405C73.9141 36.9925 73.5051 37.8575 72.8761 38.7255C72.2411 39.5975 71.4231 40.3735 70.3991 41.0625C69.3811 41.7465 68.2051 42.0885 66.8711 42.0885C64.4601 42.0885 62.5241 41.4705 61.0641 40.2265C59.5961 38.9865 58.5661 37.4295 57.9731 35.5575C57.3801 33.6885 57.1911 31.6635 57.3881 29.4955C57.5961 27.3275 58.1591 25.3095 59.0861 23.4345C60.0101 21.5655 61.2891 20.0055 62.9221 18.7655C64.5541 17.5255 66.4821 16.9005 68.7031 16.9005C71.1471 16.9005 73.0431 17.5425 74.3731 18.8225C75.7131 20.0995 76.3811 21.8895 76.3811 24.1855ZM66.8711 27.1335C66.9431 27.3575 67.0531 27.5405 67.2071 27.6915C67.4601 28.0975 67.9441 28.3025 68.6551 28.3025C69.3511 28.3025 69.9871 28.0415 70.5411 27.5225C71.1001 27.0055 71.5051 26.4195 71.7641 25.7725C72.0251 25.1245 72.0871 24.5415 71.9631 24.0175C71.8311 23.5015 71.4281 23.2425 70.7651 23.2425C70.1321 23.2425 69.5861 23.4355 69.1221 23.8285C68.6611 24.2155 68.2611 24.6695 67.9311 25.1865C67.5171 25.7465 67.1691 26.3935 66.8711 27.1335Z" fill="#ED0351"/>
<path d="M95.8917 24.1855C95.8917 26.0415 95.4127 27.5405 94.4517 28.6915C93.4877 29.8385 92.3717 30.6915 91.1087 31.2475C89.8587 31.8035 88.6217 32.0725 87.4137 32.0535C86.2097 32.0375 85.3677 31.7865 84.8877 31.3075C84.8127 31.5275 84.7557 31.9525 84.7197 32.5835C84.6867 33.2155 84.7367 33.8635 84.8877 34.5275C85.0387 35.1955 85.3257 35.7875 85.7487 36.3075C86.1747 36.8275 86.7997 37.0875 87.6107 37.0875C88.0547 37.0875 88.5367 36.8825 89.0547 36.4755C89.5757 36.0685 90.1017 35.6495 90.6407 35.2205C91.1797 34.7965 91.6877 34.4615 92.1707 34.2245C92.6537 33.9845 93.0607 34.0275 93.3947 34.3635C93.7277 34.6955 93.7997 35.2875 93.6127 36.1405C93.4277 36.9925 93.0237 37.8575 92.3917 38.7255C91.7627 39.5975 90.9337 40.3735 89.9167 41.0625C88.8997 41.7465 87.7267 42.0885 86.3877 42.0885C83.9787 42.0885 82.0397 41.4705 80.5757 40.2265C79.1147 38.9865 78.0827 37.4295 77.4897 35.5575C76.9007 33.6885 76.7067 31.6635 76.9067 29.4955C77.1107 27.3275 77.6737 25.3095 78.6037 23.4345C79.5297 21.5655 80.8087 20.0055 82.4407 18.7655C84.0657 17.5255 85.9987 16.9005 88.2187 16.9005C90.6657 16.9005 92.5547 17.5425 93.8947 18.8225C95.2247 20.0995 95.8917 21.8895 95.8917 24.1855ZM86.3877 27.1335C86.4587 27.3575 86.5707 27.5405 86.7217 27.6915C86.9787 28.0975 87.4617 28.3025 88.1627 28.3025C88.8697 28.3025 89.4997 28.0415 90.0577 27.5225C90.6117 27.0055 91.0197 26.4195 91.2797 25.7725C91.5397 25.1245 91.5977 24.5415 91.4767 24.0175C91.3377 23.5015 90.9517 23.2425 90.2787 23.2425C89.6507 23.2425 89.1047 23.4355 88.6417 23.8285C88.1767 24.2155 87.7787 24.6695 87.4437 25.1865C87.0337 25.7465 86.6867 26.3935 86.3877 27.1335Z" fill="#ED0351"/>
<path d="M100.088 19.1325C99.9399 19.1325 99.7729 19.1325 99.5879 19.1325C99.2519 19.1325 98.6439 19.1885 97.7509 19.2995C97.0869 19.4115 96.5659 19.2635 96.1939 18.8555C95.8259 18.4475 95.6119 17.9665 95.5579 17.4115C95.4979 16.8525 95.6189 16.3095 95.9179 15.7695C96.2179 15.2335 96.6769 14.8875 97.3109 14.7395C98.6099 14.4075 99.7019 14.0655 100.59 13.7125C101.475 13.3615 102.019 12.9265 102.199 12.4065C102.906 10.3665 103.592 8.73848 104.259 7.51048C104.926 6.28948 105.572 5.38148 106.203 4.78748C106.836 4.19848 107.417 3.87248 107.957 3.81548C108.49 3.76048 108.944 3.88148 109.316 4.17748C109.688 4.47348 109.964 4.89748 110.149 5.45748C110.336 6.01048 110.388 6.60248 110.319 7.23348C110.208 8.49348 110.074 9.45748 109.925 10.1225C109.779 10.7935 109.677 11.2835 109.628 11.6005C109.569 11.9125 109.578 12.1005 109.654 12.1535C109.723 12.2135 109.925 12.2555 110.262 12.2955C111.108 12.3715 111.993 12.5165 112.901 12.7395C113.81 12.9635 114.54 13.4245 115.1 14.1285C115.656 14.7965 115.95 15.5005 115.991 16.2435C116.022 16.9835 115.88 17.6595 115.543 18.2705C115.212 18.8825 114.731 19.3665 114.099 19.7185C113.469 20.0715 112.747 20.1735 111.932 20.0255C111.151 19.9105 110.539 19.8115 110.099 19.7185C109.655 19.6265 109.316 19.5605 109.095 19.5245C108.878 19.4845 108.72 19.5035 108.651 19.5775C108.579 19.6525 108.537 19.8015 108.537 20.0245C108.425 21.1365 108.329 22.4885 108.23 24.0815C108.138 25.6775 108.085 27.3055 108.066 28.9735C108.045 30.6435 108.092 32.2645 108.203 33.8405C108.312 35.4165 108.504 36.7585 108.764 37.8715C109.06 39.0195 108.889 40.0325 108.26 40.9005C107.632 41.7695 106.78 42.2265 105.703 42.2635C104.519 42.2635 103.463 41.9295 102.535 41.2595C101.61 40.5945 100.81 39.7985 100.145 38.8695C99.6249 38.2015 99.2709 37.4615 99.0859 36.6455C98.8999 35.8325 98.8079 34.9975 98.8079 34.1445C98.8079 32.9565 98.8719 31.5225 99.0029 29.8345C99.1309 28.1465 99.2889 26.5085 99.4739 24.9145C99.6599 23.0645 99.8679 21.1355 100.088 19.1325Z" fill="#ED0351"/>
<path d="M131.482 24.1855C131.482 26.0415 130.999 27.5405 130.035 28.6915C129.07 29.8385 127.958 30.6915 126.698 31.2475C125.436 31.8035 124.201 32.0725 123.003 32.0535C121.795 32.0375 120.953 31.7865 120.469 31.3075C120.393 31.5275 120.338 31.9525 120.302 32.5835C120.269 33.2155 120.324 33.8635 120.469 34.5275C120.617 35.1955 120.907 35.7875 121.335 36.3075C121.759 36.8275 122.381 37.0875 123.193 37.0875C123.645 37.0875 124.121 36.8825 124.64 36.4755C125.158 36.0685 125.688 35.6495 126.223 35.2205C126.76 34.7965 127.274 34.4615 127.754 34.2245C128.237 33.9845 128.639 34.0275 128.979 34.3635C129.306 34.6955 129.386 35.2875 129.199 36.1405C129.014 36.9925 128.606 37.8575 127.974 38.7255C127.341 39.5975 126.524 40.3735 125.5 41.0625C124.482 41.7465 123.305 42.0885 121.972 42.0885C119.561 42.0885 117.619 41.4705 116.161 40.2265C114.697 38.9865 113.666 37.4295 113.075 35.5575C112.479 33.6885 112.288 31.6635 112.488 29.4955C112.696 27.3275 113.259 25.3095 114.187 23.4345C115.111 21.5655 116.388 20.0055 118.02 18.7655C119.652 17.5255 121.58 16.9005 123.805 16.9005C126.249 16.9005 128.144 17.5425 129.473 18.8225C130.811 20.0995 131.482 21.8895 131.482 24.1855ZM121.972 27.1335C122.045 27.3575 122.154 27.5405 122.308 27.6915C122.565 28.0975 123.042 28.3025 123.753 28.3025C124.454 28.3025 125.084 28.0415 125.637 27.5225C126.198 27.0055 126.601 26.4195 126.863 25.7725C127.126 25.1245 127.191 24.5415 127.06 24.0175C126.932 23.5015 126.529 23.2425 125.866 23.2425C125.23 23.2425 124.684 23.4355 124.223 23.8285C123.763 24.2155 123.358 24.6695 123.031 25.1865C122.617 25.7465 122.265 26.3935 121.972 27.1335Z" fill="#ED0351"/>
<path d="M144.232 19.5035C145.482 18.6325 146.654 18.0995 147.747 17.8895C148.835 17.6815 149.78 17.7045 150.586 17.9615C151.387 18.2185 152.022 18.6325 152.488 19.2135C152.952 19.7895 153.169 20.4305 153.139 21.1395C153.139 21.5565 153.034 21.9495 152.824 22.3175C152.616 22.6855 152.346 22.9845 152.034 23.2095C151.711 23.4365 151.34 23.5775 150.922 23.6435C150.504 23.7095 150.09 23.6605 149.668 23.4985C149.03 23.2425 148.484 23.2195 148.033 23.4265C147.585 23.6365 147.183 23.9295 146.828 24.3185C145.893 25.5695 145.216 26.7015 144.785 27.7115C144.351 28.7245 144.018 29.7575 143.799 30.8195C143.569 31.8765 143.369 33.0405 143.193 34.3115C143.018 35.5775 142.703 37.0795 142.255 38.8125C142.031 39.7435 141.573 40.4675 140.88 40.9775C140.192 41.4935 139.399 41.7175 138.5 41.6555C138.021 41.6225 137.481 41.4625 136.886 41.1725C136.289 40.8865 135.721 40.4745 135.178 39.9445C134.632 39.4155 134.168 38.7565 133.78 37.9695C133.394 37.1845 133.188 36.2595 133.151 35.2025C133.089 34.0445 133.201 32.5165 133.491 30.6255C133.78 28.7325 134.18 26.7895 134.693 24.8015C135.208 22.8075 135.794 20.9555 136.451 19.2375C137.106 17.5205 137.774 16.2765 138.451 15.5035C138.929 14.9605 139.472 14.5825 140.063 14.3745C140.656 14.1645 141.225 14.1475 141.772 14.3255C142.317 14.5035 142.804 14.8845 143.216 15.4795C143.633 16.0715 143.91 16.9015 144.035 17.9615C144.1 18.2185 144.142 18.4635 144.156 18.7085C144.169 18.9475 144.195 19.2135 144.232 19.5035Z" fill="#ED0351"/>
<path d="M176.375 33.4285C176.971 33.2805 177.478 33.1495 177.908 33.0365C178.333 32.9295 178.747 32.8255 179.159 32.7295C179.563 32.6375 180.012 32.5395 180.494 32.4265C180.969 32.3155 181.588 32.2035 182.327 32.0915C183.956 31.7955 185.15 32.0285 185.914 32.7895C186.674 33.5485 186.925 34.4635 186.664 35.5355C186.519 36.2075 185.858 36.9405 184.686 37.7375C183.525 38.5335 182.05 39.2735 180.266 39.9585C178.491 40.6425 176.501 41.2115 174.32 41.6565C172.131 42.0995 169.942 42.3205 167.76 42.3205C166.161 42.3205 165.005 41.8305 164.282 40.8495C163.561 39.8665 163.097 38.6715 162.897 37.2635C162.692 35.8555 162.663 34.3705 162.812 32.8155C162.957 31.2575 163.124 29.9055 163.308 28.7545C163.423 27.9775 163.719 26.7635 164.199 25.1135C164.682 23.4665 165.282 21.6195 166.009 19.5805C166.73 17.5435 167.536 15.4375 168.428 13.2685C169.313 11.1015 170.231 9.12648 171.179 7.34948C172.127 5.56948 173.058 4.10548 173.987 2.95348C174.915 1.80448 175.765 1.23248 176.544 1.23248C177.732 1.23248 178.601 1.72648 179.159 2.70348C179.712 3.68748 180.09 4.84548 180.294 6.17948C180.5 7.51548 180.562 8.87648 180.494 10.2655C180.415 11.6575 180.323 12.7395 180.212 13.5195C180.1 14.5605 179.862 15.7905 179.49 17.2185C179.12 18.6465 178.731 20.1105 178.326 21.6115C177.912 23.1115 177.503 24.5855 177.097 26.0335C176.692 27.4785 176.366 28.7645 176.125 29.8955C175.885 31.0275 175.766 31.9165 175.766 32.5645C175.766 33.2125 175.967 33.5045 176.375 33.4285Z" fill="#F6F8FF"/>
<path d="M191.916 17.5465C193.173 16.2105 194.696 15.4695 196.476 15.3215C196.92 15.2855 197.283 15.2955 197.559 15.3515C197.839 15.4035 198.076 15.4695 198.28 15.5415C198.483 15.6175 198.697 15.6835 198.918 15.7385C199.143 15.7915 199.435 15.8045 199.81 15.7645C200.922 15.6525 201.916 15.8045 202.782 16.2085C203.651 16.6165 204.408 17.1835 205.039 17.9065C205.669 18.6305 206.199 19.4785 206.619 20.4635C207.046 21.4435 207.356 22.4565 207.54 23.4935C207.835 25.0865 207.862 26.6265 207.622 28.1065C207.38 29.5895 206.965 31.0745 206.372 32.5545C205.52 34.6305 204.454 36.3245 203.181 37.6445C201.895 38.9575 200.533 39.9155 199.088 40.5035C197.644 41.0995 196.201 41.3295 194.754 41.2015C193.31 41.0725 192.007 40.6185 190.861 39.8395C189.709 39.0605 188.771 37.9405 188.051 36.4765C187.33 35.0125 186.968 33.2425 186.968 31.1655C186.968 28.9775 187.318 26.6605 188.022 24.2165C188.724 21.7715 190.024 19.5465 191.916 17.5465ZM199.032 23.2715C198.624 23.9745 198.272 24.6895 197.972 25.4145C197.677 26.1335 197.417 26.8675 197.196 27.6075C196.786 29.0155 196.731 30.4235 197.028 31.8365C197.101 32.0575 197.15 32.2905 197.163 32.5295C197.184 32.7705 197.312 32.9295 197.529 33.0045C197.788 33.0765 198.011 33.0215 198.197 32.8365C198.385 32.6525 198.565 32.4635 198.753 32.2805C199.457 31.4275 199.951 30.5555 200.227 29.6645C200.503 28.7795 200.636 27.9285 200.616 27.1075C200.593 26.2945 200.441 25.5445 200.149 24.8575C199.842 24.1735 199.474 23.6425 199.032 23.2715Z" fill="#F6F8FF"/>
<path d="M226.387 13.9895C227.275 13.9895 227.896 14.2755 228.251 14.8475C228.6 15.4235 228.784 16.1635 228.805 17.0725C228.824 17.9835 228.712 19.0005 228.472 20.1325C228.226 21.2605 227.942 22.3725 227.613 23.4685C227.275 24.5565 226.945 25.5715 226.61 26.4955C226.274 27.4235 226.017 28.1465 225.834 28.6635C225.57 29.4425 225.244 30.3155 224.854 31.2795C224.469 32.2435 224.054 33.2175 223.607 34.1985C223.163 35.1785 222.7 36.1065 222.218 36.9775C221.735 37.8505 221.237 38.5645 220.717 39.1165C219.606 40.3785 218.332 40.9075 216.907 40.7025C215.475 40.4995 214.146 39.6825 212.902 38.2555C211.662 36.8295 210.652 34.8575 209.872 32.3355C209.096 29.8145 208.813 26.8665 209.04 23.4945C209.076 22.9385 209.185 22.1675 209.379 21.1845C209.56 20.2035 209.852 19.2395 210.261 18.2955C210.672 17.3505 211.199 16.5345 211.846 15.8505C212.495 15.1635 213.318 14.8175 214.322 14.8175C215.473 14.8175 216.479 15.3575 217.355 16.4335C218.224 17.5095 218.714 19.4175 218.822 22.1585C218.866 22.5305 218.879 23.2085 218.879 24.1885C218.879 25.1725 218.879 26.1825 218.879 27.2195C218.879 28.4075 218.879 29.7025 218.879 31.1115C219.626 27.9275 220.422 25.0725 221.271 22.5505C221.608 21.4745 221.975 20.4275 222.387 19.4085C222.794 18.3885 223.219 17.4735 223.663 16.6575C224.104 15.8415 224.559 15.1895 225.024 14.7105C225.485 14.2305 225.942 13.9895 226.387 13.9895Z" fill="#F6F8FF"/>
<path d="M246.624 22.7715C246.624 24.6265 246.141 26.1265 245.177 27.2755C244.209 28.4235 243.104 29.2775 241.845 29.8325C240.58 30.3885 239.351 30.6585 238.146 30.6385C236.941 30.6225 236.1 30.3715 235.616 29.8895C235.54 30.1125 235.484 30.5355 235.441 31.1685C235.412 31.8005 235.467 32.4495 235.616 33.1125C235.761 33.7815 236.047 34.3735 236.477 34.8925C236.902 35.4135 237.521 35.6725 238.34 35.6725C238.783 35.6725 239.268 35.4685 239.784 35.0605C240.306 34.6525 240.831 34.2345 241.37 33.8065C241.903 33.3825 242.416 33.0465 242.9 32.8065C243.378 32.5705 243.782 32.6135 244.116 32.9485C244.456 33.2805 244.525 33.8735 244.344 34.7245C244.157 35.5765 243.749 36.4435 243.12 37.3105C242.485 38.1835 241.666 38.9585 240.645 39.6485C239.624 40.3325 238.451 40.6735 237.112 40.6735C234.706 40.6735 232.768 40.0555 231.304 38.8115C229.837 37.5705 228.809 36.0145 228.221 34.1425C227.625 32.2735 227.432 30.2495 227.634 28.0815C227.839 25.9125 228.403 23.8935 229.33 22.0205C230.258 20.1515 231.538 18.5915 233.166 17.3515C234.797 16.1075 236.729 15.4895 238.951 15.4895C241.395 15.4895 243.284 16.1275 244.619 17.4045C245.957 18.6845 246.624 20.4745 246.624 22.7715ZM237.112 25.7185C237.191 25.9435 237.299 26.1265 237.448 26.2755C237.714 26.6835 238.191 26.8875 238.894 26.8875C239.596 26.8875 240.229 26.6275 240.785 26.1115C241.344 25.5905 241.752 25.0065 242.011 24.3575C242.269 23.7095 242.334 23.1235 242.206 22.6025C242.075 22.0865 241.672 21.8265 241.008 21.8265C240.373 21.8265 239.826 22.0215 239.362 22.4095C238.906 22.8015 238.504 23.2545 238.175 23.7725C237.765 24.3305 237.411 24.9785 237.112 25.7185Z" fill="#F6F8FF"/>
</svg>
