<svg width="32" height="32" viewBox="0 0 32 32" fill="none" xmlns="http://www.w3.org/2000/svg">
<path d="M16.1907 13.1198C14.6523 13.1198 13.4009 14.3567 13.4009 15.8772C13.4009 17.3977 14.6523 18.6346 16.1907 18.6346C17.7291 18.6346 18.9806 17.3977 18.9806 15.8772C18.9806 14.3567 17.7291 13.1198 16.1907 13.1198Z" fill="#F6F8FF"/>
<path d="M16.0669 0.251892C7.34959 0.251892 0.257812 7.26121 0.257812 15.8772C0.257812 24.4931 7.34959 31.625 16.0669 31.625C24.7842 31.625 32 24.4931 32 15.8772C32 7.26121 24.7842 0.251892 16.0669 0.251892ZM22.7005 20.4728C21.4437 20.4728 20.3353 19.8502 19.6617 18.9044C18.809 19.8583 17.5768 20.4728 16.1909 20.4728C13.6272 20.4728 11.5412 18.4111 11.5412 15.8772C11.5412 13.3432 13.6272 11.2815 16.1909 11.2815C17.2416 11.2815 18.2012 11.6409 18.9808 12.2241V12.2006C18.9808 11.6926 19.3967 11.2815 19.9107 11.2815C20.4247 11.2815 20.8406 11.6926 20.8406 12.2006C20.8406 14.2448 20.8406 14.7512 20.8406 16.7963C20.8406 17.8097 21.6752 18.6346 22.7005 18.6346C23.7258 18.6346 24.5604 17.8097 24.5604 16.7963C24.5604 10.6448 20.4419 7.60496 16.1909 7.60496C11.5757 7.60496 7.82139 11.3156 7.82139 15.8772C7.82139 20.4387 11.5757 24.1494 16.1909 24.1494C18.0508 24.1494 19.8099 23.5606 21.2784 22.4457C22.2593 21.7056 23.3826 23.1666 22.4118 23.9034C20.6145 25.2669 18.464 25.9876 16.1909 25.9876C10.5504 25.9876 5.96149 21.4521 5.96149 15.8772C5.96149 10.3023 10.5504 5.7667 16.1909 5.7667C21.3302 5.7667 26.4203 9.51278 26.4203 16.7963C26.4203 18.824 24.7521 20.4728 22.7005 20.4728Z" fill="#F6F8FF"/>
</svg>
