<svg width="60" height="56" viewBox="0 0 60 56" fill="none" xmlns="http://www.w3.org/2000/svg">
<path d="M39.1853 18.6042C44.3201 18.6042 48.4874 14.4369 48.4874 9.30211C48.4874 4.16735 44.3201 0 39.1853 0H20.5811C15.4463 0 11.279 4.16735 11.279 9.30211C11.279 14.4369 15.4463 18.6042 20.5811 18.6042C15.4463 18.6042 11.279 22.7716 11.279 27.9063C11.279 33.0411 15.4463 37.2084 20.5811 37.2084C15.4463 37.2084 11.279 41.3634 11.2666 46.5105C11.2666 51.6453 15.4215 55.8127 20.5687 55.8251C25.7035 55.8251 29.8708 51.6701 29.8832 46.523V18.6042H39.1853ZM39.1853 18.6042C34.0506 18.6042 29.8832 22.7716 29.8832 27.9063C29.8832 33.0411 34.0506 37.2084 39.1853 37.2084C44.3201 37.2084 48.4874 33.0411 48.4874 27.9063C48.4874 22.7716 44.3201 18.6042 39.1853 18.6042Z" fill="#F6F8FF"/>
</svg>
