<svg width="57" height="56" viewBox="0 0 57 56" fill="none" xmlns="http://www.w3.org/2000/svg">
<path d="M24.4001 23.9089L21.731 31.2098H26.9646L24.4001 23.9089Z" fill="#F6F8FF"/>
<path d="M3.1792 0C1.52235 0 0.179199 1.34315 0.179199 3V52.8251C0.179199 54.4819 1.52234 55.8251 3.1792 55.8251H53.0043C54.6611 55.8251 56.0043 54.4819 56.0043 52.8251V3C56.0043 1.34315 54.6611 0 53.0043 0H3.1792ZM52.7333 49.5541C52.7333 51.2109 51.3901 52.5541 49.7333 52.5541H6.4502C4.79334 52.5541 3.4502 51.2109 3.4502 49.5541V6.271C3.4502 4.61414 4.79334 3.271 6.4502 3.271H49.7333C51.3901 3.271 52.7333 4.61415 52.7333 6.271V49.5541Z" fill="#F6F8FF"/>
<path d="M6.72119 6.54199V49.2831H49.4623V6.54199H6.72119ZM29.3458 38.3797L27.6187 33.748H21.1291L19.4282 38.3797H15.7123L22.8038 19.8004H25.9963L33.0617 38.3797H29.3458ZM38.269 38.3797H34.7626V24.6677H38.269V38.3797ZM38.269 22.7574H34.7626V19.2771H38.269V22.7574Z" fill="#F6F8FF"/>
</svg>
