<svg width="56" height="56" viewBox="0 0 56 56" fill="none" xmlns="http://www.w3.org/2000/svg">
<path fill-rule="evenodd" clip-rule="evenodd" d="M50.7644 0H5.06067C2.26571 0 0 2.26571 0 5.06067V50.7644C0 53.5593 2.26571 55.8251 5.06067 55.8251H50.7644C53.5593 55.8251 55.8251 53.5593 55.8251 50.7644V5.06067C55.8251 2.26571 53.5593 0 50.7644 0ZM18.6567 17.5642C20.5124 17.5642 22.067 16.1096 22.067 14.2033C22.067 12.2983 20.5124 10.844 18.6567 10.844C16.8009 10.844 15.2468 12.2983 15.2468 14.2033C15.2468 16.1094 16.8009 17.5642 18.6567 17.5642ZM11.5857 35.559C11.3853 36.4117 11.2847 37.3324 11.2847 38.0834C11.2847 41.0428 12.8895 43.0073 16.2998 43.0073C19.1282 43.0073 21.4211 41.3278 23.0721 38.6157L22.064 42.6615H27.6803L30.8902 29.787C31.6927 26.5274 33.2473 24.8354 35.6046 24.8354C37.4601 24.8354 38.6135 25.9894 38.6135 27.8944C38.6135 28.4464 38.5633 29.0476 38.3627 29.6998L36.7076 35.6175C36.4568 36.4701 36.3569 37.3232 36.3569 38.125C36.3569 40.9344 38.0114 42.9892 41.4719 42.9892C44.4309 42.9892 46.7877 41.0844 48.0918 36.5205L45.8854 35.6687C44.782 38.7262 43.829 39.279 43.0767 39.279C42.3243 39.279 41.9231 38.7779 41.9231 37.7755C41.9231 37.3241 42.0238 36.8232 42.1739 36.22L43.7791 30.4548C44.1801 29.101 44.3308 27.9005 44.3308 26.7975C44.3308 22.4846 41.7227 20.2337 38.5633 20.2337C35.6046 20.2337 32.5953 22.9027 31.0911 25.7116L32.1941 20.6699H23.6188L22.4151 25.1106H26.4273L23.9566 35.0021C22.0164 39.315 18.4526 39.385 18.0053 39.2849C17.2709 39.1192 16.8012 38.8403 16.8012 37.886C16.8012 37.3354 16.9015 36.5445 17.1523 35.5909L20.9139 20.6699H11.3853L10.1815 25.1106H14.1432L11.5859 35.559H11.5857ZM30.9872 17.3956H31.806C31.8218 17.3956 31.837 17.4019 31.8481 17.4131C31.8593 17.4243 31.8655 17.4394 31.8655 17.4552V18.274C31.8655 18.2897 31.8592 18.3049 31.8481 18.316C31.8369 18.3272 31.8217 18.3334 31.806 18.3334H30.9872C30.9714 18.3334 30.9563 18.3272 30.9451 18.316C30.9339 18.3048 30.9276 18.2897 30.9276 18.2739V17.4552C30.9276 17.4394 30.9339 17.4242 30.9451 17.4131C30.9563 17.4019 30.9714 17.3956 30.9872 17.3956ZM31.3125 18.2441C31.3889 18.2441 31.4412 18.2035 31.4412 18.1143V17.8199H31.3519V18.1006C31.3519 18.1437 31.3356 18.1548 31.3073 18.1548C31.2776 18.1548 31.257 18.1363 31.2435 18.1123L31.1733 18.1548C31.1936 18.1978 31.2434 18.2441 31.3125 18.2441ZM31.4859 18.1548C31.5109 18.2043 31.5559 18.2441 31.635 18.2441C31.7159 18.2441 31.7762 18.2021 31.7762 18.1254C31.7762 18.0542 31.7354 18.0226 31.6629 17.9916L31.6416 17.9824C31.6051 17.9666 31.5893 17.9563 31.5893 17.9307C31.5893 17.9101 31.6051 17.8942 31.63 17.8942C31.6545 17.8942 31.6702 17.9045 31.6849 17.9307L31.7512 17.8881C31.7231 17.8387 31.6842 17.8199 31.63 17.8199C31.5539 17.8199 31.5052 17.8685 31.5052 17.9324C31.5052 18.0018 31.5461 18.0346 31.6076 18.0608L31.6289 18.07C31.6677 18.0869 31.6869 18.0973 31.6869 18.1264C31.6869 18.1509 31.6684 18.1685 31.6331 18.1685C31.591 18.1685 31.5711 18.14 31.5529 18.1101L31.4859 18.1548Z" fill="#F6F8FF"/>
</svg>
