<svg width="56" height="57" viewBox="0 0 56 57" fill="none" xmlns="http://www.w3.org/2000/svg">
<path d="M52.448 0.763184H3.55733C2.61398 0.763537 1.70936 1.13844 1.04231 1.80549C0.375256 2.47255 0.000353383 3.37716 0 4.32052V53.2059C0.000353383 54.1492 0.375256 55.0538 1.04231 55.7209C1.70936 56.3879 2.61398 56.7628 3.55733 56.7632H52.4427C53.3852 56.7632 54.2892 56.3891 54.9562 55.7232C55.6232 55.0572 55.9986 54.1537 56 53.2112V4.32052C56 3.37798 55.6259 2.47396 54.96 1.80699C54.294 1.14001 53.3905 0.764597 52.448 0.763184ZM30.6667 43.6752C30.6667 49.0032 27.5413 51.4299 22.9787 51.4299C18.8547 51.4299 15.88 48.6645 14.6667 46.0965L18.86 43.5605C19.6667 44.9925 20.896 46.0965 22.6667 46.0965C24.36 46.0965 25.3333 45.4352 25.3333 42.8619V26.0965H30.6667V43.6752ZM42.2347 51.4299C37.5107 51.4299 34.828 49.0499 33.3333 46.0965L37.3333 43.4299C38.4213 45.2112 39.6093 46.9138 42.12 46.9138C44.2293 46.9138 45.3333 45.8619 45.3333 44.4032C45.3333 42.6645 44.1867 42.0432 41.8693 41.0299L40.5987 40.4832C36.9267 38.9192 34.484 36.9605 34.484 32.8165C34.484 29.0032 37.396 26.0965 41.9373 26.0965C45.172 26.0965 47.4947 27.2219 49.172 30.1699L45.2133 32.7165C44.3387 31.1485 43.4 30.5338 41.9373 30.5338C40.448 30.5338 39.5053 31.4819 39.5053 32.7165C39.5053 34.2419 40.448 34.8565 42.6307 35.8045L43.9013 36.3512C48.2293 38.2005 50.6667 40.0912 50.6667 44.3419C50.6667 48.9192 47.0667 51.4299 42.2347 51.4299Z" fill="#F6F8FF"/>
</svg>
