<svg width="53" height="60" viewBox="0 0 53 60" fill="none" xmlns="http://www.w3.org/2000/svg">
<path d="M52.0045 15.1338C52.0045 14.9449 51.8705 14.7133 51.706 14.6158L26.3025 0.0708544C26.138 -0.0266403 25.8699 -0.0205469 25.7054 0.0708544L0.40551 14.7925C0.240988 14.89 0.106934 15.1216 0.106934 15.3105L0.210521 44.5772C0.210521 44.7661 0.344577 44.9976 0.509099 45.0951L25.9064 59.6401C26.071 59.7376 26.3391 59.7315 26.5036 59.6401L51.7974 44.9184C51.9619 44.8209 52.0959 44.5893 52.0959 44.4005L52.0045 15.1338ZM44.5523 38.959C44.5523 39.1479 44.5096 39.4526 44.4609 39.6415L44.01 40.4397C43.8759 40.5799 43.6383 40.7688 43.4738 40.8724L27.6674 50.4573C27.5029 50.5548 27.2287 50.6949 27.052 50.7742C27.052 50.7742 26.8205 50.8717 26.5341 50.8717C26.2964 50.8717 26.1563 50.8229 26.1563 50.8229C25.9796 50.762 25.6871 50.6401 25.5165 50.5609L18.6979 47.2583C18.5273 47.173 18.4542 46.9658 18.5395 46.7952L19.6485 44.5101C19.7338 44.3395 19.941 44.2664 20.1116 44.3517L26.138 47.2704C26.3086 47.3558 26.5828 47.3436 26.7473 47.24L41.0242 38.5751C41.1887 38.4776 41.3228 38.24 41.3228 38.0511V21.6598C41.3228 21.4709 41.1887 21.2333 41.0242 21.1358L26.8266 12.7513C26.662 12.6538 26.3939 12.6538 26.2294 12.7513L11.6844 21.148C11.5199 21.2455 11.3858 21.477 11.3858 21.6659V38.3802C11.3858 38.5691 11.5016 38.8311 11.6418 38.959C11.6418 38.959 14.5483 41.5792 15.9315 41.5244C17.1868 41.4756 18.3384 40.3605 18.3384 40.3605C18.4725 40.2265 18.5883 39.9644 18.5883 39.7755V21.5928C18.5883 21.4039 18.7467 21.2455 18.9356 21.2455H21.4765C21.6654 21.2455 21.8239 21.4039 21.8239 21.5928V40.3422C21.8239 40.5311 21.7995 40.8419 21.7751 41.0308C21.7751 41.0308 21.7325 41.3233 21.5497 41.5914C21.4643 41.7133 19.4718 44.6198 16.0656 44.7539C13.4759 44.8575 10.9349 43.3585 8.50975 40.3118C8.28429 40.0254 8.21727 39.6476 8.21727 39.6476C8.1868 39.4587 8.15633 39.154 8.15633 38.959V20.7336C8.15633 20.5447 8.19899 20.2401 8.24773 20.0573L8.72302 19.2407C8.85708 19.1067 9.10081 18.9178 9.26534 18.8203L25.4312 9.47909C25.5957 9.38159 25.8821 9.26582 26.0649 9.22316L27.0276 9.22926C27.2104 9.278 27.4968 9.39987 27.6614 9.49127L43.4677 18.8264C43.6322 18.9239 43.8759 19.1128 44.0039 19.2529L44.467 20.0633C44.5157 20.2462 44.5584 20.5508 44.5584 20.7397L44.5523 38.959ZM34.4068 33.3348C33.9924 33.0667 32.9748 32.7316 31.3357 32.3172C29.136 31.7627 27.6065 31.2813 26.7595 30.8731C25.9064 30.4648 25.2666 29.9042 24.8218 29.1913C24.3831 28.4723 24.1637 27.6801 24.1637 26.8149C24.1637 26.0227 24.3465 25.2976 24.706 24.6212C25.0656 23.9509 25.5591 23.3904 26.1807 22.9455C26.6498 22.5982 27.2836 22.3118 28.0879 22.0681C28.8922 21.8304 29.7575 21.7086 30.6837 21.7086C32.073 21.7086 33.2917 21.9097 34.3458 22.3118C35.3939 22.714 36.1739 23.2563 36.6735 23.9388C37.1732 24.6212 37.618 26.3457 37.618 26.3457C37.6667 26.5285 37.551 26.6991 37.3621 26.7295L35.1136 27.0342C34.9247 27.0586 34.7236 26.9306 34.6627 26.7539C34.6627 26.7539 34.2483 25.4621 33.6085 24.9503C32.9687 24.4384 32.0669 24.1825 30.897 24.1825C29.5198 24.1825 28.5327 24.408 27.9477 24.865C27.3567 25.322 27.0642 25.8521 27.0642 26.4675C27.0642 26.8575 27.1861 27.2048 27.4298 27.5156C27.6735 27.8385 28.0574 28.1067 28.5815 28.3138C28.88 28.4235 29.7636 28.6794 31.2321 29.0816C33.3526 29.6483 34.8394 30.1114 35.6742 30.477C36.5151 30.8365 37.1732 31.3666 37.6485 32.0552C38.1237 32.7437 38.3675 33.6029 38.3675 34.6205C38.3675 35.6198 38.075 36.5643 37.49 37.4479C36.9051 38.3314 36.0642 39.0139 34.9613 39.5013C33.8584 39.9827 32.6153 40.2265 31.226 40.2265C28.9227 40.2265 27.1739 39.7512 25.9674 38.7945C24.7609 37.8378 23.7677 34.8703 23.7677 34.8703C23.7067 34.6875 23.8103 34.5169 23.9992 34.4865L26.2903 34.1209C26.4792 34.0904 26.6742 34.2184 26.7291 34.4012C26.7291 34.4012 27.2592 36.1682 28.0209 36.802C28.7825 37.4357 29.8489 37.7525 31.2138 37.7525C32.5909 37.7525 33.6146 37.4722 34.2849 36.9116C34.9552 36.351 35.2842 35.693 35.2842 34.9374C35.2903 34.2549 34.9917 33.7187 34.4068 33.3348Z" fill="#F6F8FF"/>
</svg>
