<svg width="57" height="56" viewBox="0 0 57 56" fill="none" xmlns="http://www.w3.org/2000/svg">
<path d="M3.20801 0C1.55115 0 0.208008 1.34315 0.208008 3V52.8251C0.208008 54.4819 1.55115 55.8251 3.20801 55.8251H53.0331C54.6899 55.8251 56.0331 54.4819 56.0331 52.8251V3C56.0331 1.34315 54.6899 0 53.0331 0H3.20801ZM52.7621 49.5541C52.7621 51.2109 51.4189 52.5541 49.7621 52.5541H6.47901C4.82215 52.5541 3.47901 51.2109 3.47901 49.5541V6.271C3.47901 4.61414 4.82215 3.271 6.47901 3.271H49.7621C51.4189 3.271 52.7621 4.61415 52.7621 6.271V49.5541Z" fill="#F6F8FF"/>
<path d="M23.2076 22.9668H19.1777V28.9854H23.3646C24.6314 28.9854 25.6936 27.8035 25.6936 25.9761C25.6937 24.406 24.7404 22.9668 23.2076 22.9668Z" fill="#F6F8FF"/>
<path d="M6.75 6.54199V49.2831H49.4911V6.54199H6.75ZM23.5742 32.1517H19.1779V38.3797H15.5668V19.8004H23.4433C27.0484 19.8004 29.3573 23.1151 29.3573 25.9761C29.3573 29.3482 26.7939 32.1517 23.5742 32.1517ZM36.7101 38.6414C33.5449 38.6414 31.2933 37.2022 30.5083 36.5218L31.8167 34.3237C32.654 34.9169 34.5808 36.1293 36.6316 36.1293C37.9608 36.1293 38.882 35.5721 38.882 34.6115C38.882 33.4323 36.9365 33.0505 35.8727 32.7536C34.983 32.5095 30.9793 31.9468 30.9793 28.9331C30.9793 26.0317 33.5041 24.406 36.3699 24.406C39.3782 24.406 40.9841 25.6273 41.7343 26.2901L40.3213 28.4097C39.6233 27.8864 38.0698 26.892 36.3437 26.892C35.0714 26.892 34.2503 27.4355 34.2503 28.4359C34.2503 29.6843 36.4394 30.0411 36.9456 30.163C37.8876 30.4074 42.2577 31.0745 42.2577 34.2975C42.2577 38.1071 38.4196 38.6414 36.7101 38.6414Z" fill="#F6F8FF"/>
</svg>
