<svg width="56" height="56" viewBox="0 0 56 56" fill="none" xmlns="http://www.w3.org/2000/svg">
<path d="M27.1437 56H28.8038C28.8814 55.9716 28.958 55.965 29.0357 55.965C29.9221 55.9223 30.8019 55.8523 31.6741 55.7331C33.3056 55.5219 34.9099 55.1631 36.4714 54.6642C39.1513 53.8066 41.6485 52.5758 43.9629 50.972C46.1088 49.4809 48.0073 47.7229 49.6608 45.6979C51.6097 43.3207 53.1286 40.6973 54.2054 37.8147C55.1694 35.2548 55.7461 32.604 55.9223 29.868C55.9289 29.7203 55.9508 29.5726 56 29.4249V26.5346C55.9508 26.4077 55.93 26.2742 55.9223 26.1408C55.8873 25.4866 55.8173 24.8324 55.7319 24.1858C55.3095 21.0636 54.3816 18.1022 52.9535 15.2961C51.9687 13.3619 50.7726 11.5623 49.3664 9.90166C47.9734 8.2563 46.4119 6.78599 44.6818 5.49946C41.8608 3.40339 38.7585 1.8915 35.3684 0.963801C33.7226 0.514173 32.0406 0.218797 30.339 0.0776729C30.037 0.0492293 29.7197 0.071109 29.4176 0H26.5758C26.358 0.0634511 26.1326 0.0284436 25.9148 0.0492293C24.7888 0.147688 23.6705 0.288812 22.5598 0.506515C19.0635 1.19573 15.8212 2.50413 12.8239 4.4372C10.4953 5.93487 8.44131 7.74213 6.64778 9.84477C5.20551 11.5328 3.98211 13.3685 2.98302 15.3508C1.80119 17.693 0.957497 20.1468 0.478203 22.7275C0.225422 24.0917 0.0350189 25.4702 0.0284538 26.8628C0.0284538 26.9547 0.00766373 27.0532 3.8147e-06 27.144V28.8035C0.0284538 28.9086 0.02845 29.0212 0.0350151 29.1339C0.0350151 29.4008 0.0350189 29.6689 0.0558128 29.9358C0.182747 31.638 0.449749 33.3184 0.872143 34.978C1.68082 38.0937 2.98302 40.984 4.79078 43.6489C6.13456 45.6323 7.70267 47.4188 9.50386 49.0007C11.2974 50.576 13.2605 51.9052 15.3922 52.9806C17.8478 54.2179 20.4292 55.0767 23.1375 55.5471C24.1782 55.7298 25.2265 55.849 26.2814 55.9125C26.5594 55.9442 26.8548 55.9376 27.1437 56ZM38.4619 42.6381C37.9979 42.6523 37.4771 42.5954 36.9562 42.4838C35.4154 42.1458 34.1067 41.4434 33.101 40.1985C32.4893 39.4393 31.975 38.6166 31.5318 37.7512C31.0109 36.7316 30.5754 35.6694 30.1957 34.594C29.7317 33.2932 29.3378 31.9641 29.0346 30.6206C28.8661 29.868 29.0554 29.3965 29.886 29.1372C30.9409 28.8068 32.0034 28.5114 33.0868 28.2719C34.8803 27.878 36.6881 27.6253 38.5319 27.6877C39.0528 27.7085 39.5726 27.7653 40.0869 27.8561C41.5784 28.1165 42.8445 28.8057 43.8786 29.8953C45.6448 31.7518 46.3473 33.9671 45.9118 36.4921C45.2859 40.1 42.0916 42.6665 38.4619 42.6381ZM35.4865 16.773C35.5073 17.3003 35.4089 17.8768 35.2469 18.4533C34.9372 19.5506 34.424 20.556 33.8189 21.5056C32.4401 23.6651 30.7023 25.5139 28.8169 27.2304C28.6626 27.3715 28.4788 27.4907 28.2818 27.5816C28.0848 27.68 27.8878 27.68 27.6843 27.5958C27.4873 27.5115 27.3111 27.3923 27.1634 27.2369C26.509 26.5904 25.8623 25.9428 25.243 25.2743C24.3708 24.3248 23.5402 23.3478 22.7874 22.2998C22.1045 21.3502 21.4928 20.3514 21.0431 19.2684C20.5933 18.1919 20.3745 17.0815 20.5222 15.9142C20.7684 13.9877 21.5913 12.3555 23.062 11.0755C24.8009 9.56471 26.8264 8.95974 29.1058 9.29669C32.8132 9.84587 35.5008 13.1092 35.4865 16.773ZM17.2109 42.5965C17.0282 42.5899 16.6977 42.5965 16.3672 42.5473C14.1447 42.2169 12.3862 41.1404 11.1475 39.2566C10.1768 37.7731 9.7829 36.1267 9.96564 34.3621C10.1342 32.7091 10.8028 31.2606 11.9354 30.0441C12.9202 28.9895 14.0955 28.2576 15.5159 27.948C16.2972 27.7796 17.0916 27.7085 17.8861 27.6953C18.8283 27.6811 19.7639 27.7653 20.6929 27.8922C22.5499 28.1526 24.3653 28.5957 26.1512 29.158C26.334 29.2138 26.5025 29.2991 26.6502 29.4184C26.8406 29.5726 26.9457 29.763 26.9457 30.0091C26.9457 30.2202 26.9249 30.4314 26.8756 30.6425C26.7629 31.0648 26.6644 31.486 26.5517 31.9017C26.0308 33.8009 25.3983 35.6573 24.5328 37.4296C24.0338 38.4492 23.456 39.413 22.7173 40.2783C22.1549 40.9325 21.5005 41.4664 20.7192 41.8395C19.6512 42.3503 18.5405 42.6249 17.2109 42.5965Z" fill="#F6F8FF"/>
</svg>
