<svg width="67" height="51" viewBox="0 0 67 51" fill="none" xmlns="http://www.w3.org/2000/svg">
<path d="M57.6768 28.8908C55.3342 28.904 53.3057 29.4641 51.6044 30.2981C50.9762 29.0604 50.3481 27.9788 50.2435 27.1711C50.1257 26.233 49.9817 25.6596 50.1257 24.5392C50.2695 23.4185 50.9239 21.8289 50.9239 21.6986C50.9107 21.5814 50.7798 21.0081 49.432 20.9951C48.0841 20.982 46.9192 21.2556 46.7884 21.6074C46.6575 21.9592 46.3958 22.7671 46.2256 23.6009C45.9901 24.8257 43.5297 29.1645 42.1294 31.4446C41.6713 30.5586 41.2787 29.7768 41.2001 29.1513C41.0824 28.2133 40.9383 27.6399 41.0824 26.5195C41.2264 25.3988 41.8807 23.8094 41.8807 23.6791C41.8676 23.5618 41.7368 22.9886 40.3889 22.9755C39.0408 22.9625 37.8762 23.2361 37.7453 23.5879C37.6145 23.9397 37.4705 24.7736 37.1826 25.5814C36.9076 26.3892 33.6358 33.6335 32.7852 35.5228C32.3533 36.487 31.9739 37.2557 31.699 37.7769C31.4241 38.298 31.6859 37.816 31.6597 37.8681C31.4241 38.3111 31.2933 38.5586 31.2933 38.5586V38.5718C31.11 38.8975 30.9137 39.2101 30.822 39.2101C30.7566 39.2101 30.6257 38.3371 30.8482 37.1386C31.3324 34.6238 32.5102 30.7021 32.4973 30.5587C32.4973 30.4936 32.7196 29.8029 31.7381 29.4512C30.7827 29.0994 30.4426 29.6858 30.3639 29.6858C30.2854 29.6858 30.22 29.8942 30.22 29.8942C30.22 29.8942 31.28 25.4774 28.1915 25.4774C26.2546 25.4774 23.5848 27.5751 22.263 29.4905C21.4255 29.9465 19.6456 30.9105 17.7611 31.94C17.0413 32.3309 16.2953 32.7478 15.5886 33.1256L15.4448 32.969C11.7019 28.9951 4.77883 26.1807 5.06675 20.8387C5.17145 18.8973 5.85198 13.7768 18.3634 7.57483C28.6105 2.49338 36.8161 3.88752 38.2425 6.9885C40.271 11.4185 33.8583 19.653 23.2056 20.8387C19.1486 21.2947 17.0153 19.7312 16.4788 19.1449C15.9161 18.5325 15.8375 18.5065 15.6282 18.6237C15.2879 18.8061 15.4973 19.3534 15.6282 19.6791C15.9422 20.4999 17.251 21.9592 19.4758 22.6889C21.4256 23.3273 26.1894 23.6791 31.9477 21.4641C38.3997 18.9755 43.4382 12.07 41.9594 6.29795C40.4543 0.42171 30.6652 -1.50663 21.4126 1.76373C15.9029 3.71814 9.93514 6.76701 5.64258 10.767C0.538621 15.5097 -0.272779 19.653 0.0674855 21.3729C1.25854 27.5097 9.75193 31.5097 13.1546 34.4674C12.9844 34.5585 12.8274 34.6497 12.6834 34.728C10.9821 35.5617 4.50401 38.9365 2.88121 42.5064C1.04902 46.5455 3.16912 49.4512 4.58253 49.842C8.95361 51.0538 13.4294 48.8779 15.8505 45.2948C18.2584 41.7117 17.9706 37.0603 16.8582 34.9365L16.8188 34.8583L18.1537 34.0765C19.0176 33.5684 19.8682 33.0993 20.6141 32.6953C20.1954 33.8288 19.8943 35.1709 19.7374 37.1253C19.5541 39.4186 20.4964 42.3891 21.7397 43.5618C22.2893 44.0698 22.9437 44.0829 23.3494 44.0829C24.789 44.0829 25.4433 42.8971 26.1631 41.4771C27.053 39.7442 27.8383 37.7377 27.8383 37.7377C27.8383 37.7377 26.8567 43.1709 29.5396 43.1709C30.5211 43.1709 31.5027 41.907 31.9476 41.2556V41.2686C31.9476 41.2686 31.9738 41.2295 32.0261 41.1383C32.0811 41.0575 32.1334 40.975 32.1832 40.8909V40.8648C32.5758 40.1873 33.4526 38.6368 34.7613 36.07C36.4494 32.7606 38.0724 28.6172 38.0724 28.6172C38.0724 28.6172 38.2294 29.6335 38.7136 31.3013C39.0014 32.2916 39.6296 33.3729 40.1138 34.4283C39.7212 34.9756 39.4856 35.2884 39.4856 35.2884L39.4987 35.3014C39.1848 35.7184 38.8313 36.1615 38.465 36.6044C37.1301 38.1939 35.5335 40.0051 35.3241 40.5263C35.0754 41.1386 35.1278 41.5946 35.612 41.9596C35.9653 42.2201 36.5935 42.2721 37.261 42.2201C38.465 42.1418 39.3026 41.8423 39.7213 41.6597C40.3757 41.4252 41.1217 41.0734 41.8414 40.5523C43.1502 39.5882 43.9485 38.2201 43.8699 36.396C43.8307 35.3928 43.5035 34.4025 43.0978 33.4644C43.2156 33.295 43.3335 33.1255 43.4512 32.9432C45.5189 29.9333 47.1155 26.624 47.1155 26.624C47.1155 26.624 47.2726 27.6403 47.7568 29.308C48.0053 30.155 48.5028 31.0802 48.9477 31.9922C47.0108 33.5688 45.7937 35.3929 45.375 36.5916C44.6028 38.8066 45.2048 39.8098 46.3434 40.0444C46.8537 40.1486 47.5867 39.9141 48.1362 39.6795C48.8167 39.458 49.6412 39.0801 50.4004 38.5199C51.7091 37.5558 52.9655 36.2137 52.9 34.4027C52.8608 33.5688 52.6383 32.7479 52.3373 31.9662C53.9863 31.2886 56.1193 30.8978 58.8285 31.2235C64.6522 31.901 65.8039 35.5232 65.5816 37.0346C65.3591 38.5461 64.142 39.3799 63.7361 39.6405C63.3304 39.888 63.1996 39.9794 63.2388 40.1616C63.2912 40.4354 63.4744 40.4222 63.8277 40.3702C64.312 40.2919 66.8901 39.1324 66.9948 36.3443C67.1519 32.7607 63.7361 28.8519 57.6768 28.8908ZM12.762 43.9658C10.8382 46.0635 8.12913 46.8583 6.97747 46.1808C5.73419 45.4642 6.21828 42.3762 8.58718 40.1482C10.0268 38.7932 11.8982 37.5423 13.1284 36.7736C13.4032 36.6042 13.822 36.3568 14.3193 36.057C14.3978 36.005 14.4502 35.9788 14.4502 35.9788C14.5418 35.9267 14.6465 35.8616 14.7512 35.7964C15.628 38.9756 14.7905 41.7638 12.762 43.9658ZM26.8306 34.4414C26.1631 36.07 24.7497 40.2524 23.8991 40.0179C23.1661 39.8225 22.7212 36.6563 23.755 33.5293C24.2785 31.9526 25.3909 30.0765 26.0452 29.3467C27.1054 28.1741 28.2569 27.7832 28.545 28.2653C28.8852 28.8908 27.2494 33.4251 26.8306 34.4414ZM38.4388 39.9658C38.1509 40.1093 37.8891 40.2134 37.7714 40.1353C37.6798 40.0832 37.889 39.8878 37.889 39.8878C37.889 39.8878 39.3417 38.3373 39.9175 37.6207C40.2447 37.2038 40.6373 36.7218 41.0561 36.1744V36.3307C41.0562 38.2068 39.2502 39.4577 38.4388 39.9658ZM47.3902 37.9332C47.1808 37.7769 47.2071 37.2948 47.9137 35.7834C48.1887 35.184 48.8167 34.1808 49.903 33.2296C50.0338 33.6205 50.1125 33.9982 50.0993 34.3502C50.0863 36.6954 48.4112 37.5684 47.3902 37.9332Z" fill="#F6F8FF"/>
</svg>
