<svg width="142" height="246" viewBox="0 0 142 246" fill="none" xmlns="http://www.w3.org/2000/svg">
<path d="M117.729 71.4124C117.729 71.4124 120.912 3.9762 65.1328 3.9762C11.7695 3.9762 6.55585 46.6843 4.91218 57.1544C3.2129 67.9226 4.09718 108.003 4.09718 108.003V194.662C4.09718 194.662 3.84101 210.974 22.3508 210.974C42.1779 210.974 42.0986 193.934 42.0986 193.934C42.0986 193.934 40.7785 171.209 60.3203 171.209C80.2613 171.209 77.0269 194.349 77.0269 194.349V226.673C77.0269 226.673 78.0142 242.398 96.4109 242.398C114.809 242.398 115.868 227.386 115.868 227.386L116.316 149.038" stroke="#F6F8FF" stroke-width="6.38143" stroke-miterlimit="10" stroke-linecap="round"/>
<path d="M132.261 97.0439C129.927 94.7092 127.161 92.256 123.952 89.8146C120.727 87.3714 117.072 84.9292 112.956 82.6237C111.851 82.0019 110.703 81.3957 109.544 80.8013C109.462 80.7612 109.394 80.7211 109.328 80.6928C108.154 80.0848 106.925 79.4931 105.685 78.9261C105.631 78.8987 105.564 78.8705 105.51 78.844C104.418 78.3463 103.284 77.8586 102.138 77.3872C101.855 77.266 101.559 77.1447 101.26 77.0244C100.021 76.5248 98.7671 76.0253 97.4708 75.5667C95.5144 74.852 93.4915 74.192 91.413 73.5702C90.1458 73.1937 88.8513 72.8428 87.5413 72.5055C87.07 72.3842 86.5996 72.262 86.1118 72.1545C85.2348 71.9393 84.3451 71.7233 83.4408 71.5337C82.902 71.4115 82.3751 71.2921 81.8235 71.1845C80.5135 70.9156 79.1925 70.6612 77.8561 70.4306C77.7221 70.4032 77.5853 70.3923 77.4522 70.3668C77.2772 70.3394 77.1149 70.3166 76.9527 70.3048C75.5232 70.0623 74.0792 69.8708 72.5951 69.6821C71.8402 69.5736 71.0854 69.5162 70.3032 69.4478C68.7781 69.2865 67.2128 69.2099 65.6202 69.0887C62.4513 68.8598 59.174 68.8689 55.7864 68.8689C53.1828 68.8689 50.6484 69.2108 48.1515 69.3321C38.2092 69.9128 29.2506 71.932 21.2656 74.3333C20.6029 74.5493 19.9437 74.9805 19.2956 74.9805H19.2819C19.2819 74.9805 17.0557 75.5211 15.9772 76.8831C14.7101 78.4611 14.3445 81.0046 14.1831 84.3631C13.7519 93.2132 14.0209 100.822 14.0209 110.278L13.9671 136.34C13.9671 136.34 13.7784 141.548 14.2779 142.626C14.7638 143.691 17.0019 145.029 18.1633 145.365C18.1761 145.379 18.1898 145.379 18.2034 145.379C18.2426 145.391 18.2581 145.404 18.2837 145.404C18.7696 145.553 18.9583 145.619 19.2008 145.702C19.2545 145.715 19.3229 145.741 19.3776 145.756C22.479 146.806 25.7034 147.738 29.05 148.548C37.2912 150.571 46.2343 151.812 55.7864 151.812C68.9121 151.812 80.9046 149.575 91.4959 146.133C93.5863 145.444 95.6229 144.73 97.5929 143.962C98.9421 143.449 100.264 142.896 101.56 142.343C101.707 142.276 101.856 142.222 101.992 142.155C103.272 141.602 104.541 141.034 105.768 140.44C105.85 140.401 105.931 140.358 106.012 140.319C108.602 139.091 111.058 137.811 113.391 136.488C131.386 126.302 141.801 114.244 141.801 110.979C141.798 108.969 138.682 103.465 132.261 97.0439ZM56.4336 130.782C44.8176 130.782 35.416 121.38 35.416 109.778C35.416 98.1633 44.8176 88.7471 56.4336 88.7471C68.0351 88.7471 77.4513 98.1643 77.4513 109.778C77.4513 121.38 68.0351 130.782 56.4336 130.782Z" fill="#F6F8FF"/>
</svg>
