<svg width="54" height="54" viewBox="0 0 54 54" fill="none" xmlns="http://www.w3.org/2000/svg">
<path d="M27.4958 22.0714C24.9189 22.0714 22.8226 24.1401 22.8226 26.6831C22.8226 29.226 24.9189 31.2947 27.4958 31.2947C30.0726 31.2947 32.1689 29.226 32.1689 26.6831C32.1689 24.1401 30.0726 22.0714 27.4958 22.0714Z" fill="#FCA311"/>
<path d="M27.2881 0.550415C12.6861 0.550415 0.807007 12.2732 0.807007 26.6831C0.807007 41.0929 12.6861 53.0207 27.2881 53.0207C41.8901 53.0207 53.9769 41.0929 53.9769 26.6831C53.9769 12.2732 41.8901 0.550415 27.2881 0.550415ZM38.3998 34.3691C36.2945 34.3691 34.4378 33.3278 33.3095 31.746C31.8813 33.3414 29.8172 34.3691 27.4958 34.3691C23.2014 34.3691 19.7072 30.921 19.7072 26.6831C19.7072 22.4452 23.2014 18.997 27.4958 18.997C29.2558 18.997 30.8631 19.598 32.1689 20.5735V20.5342C32.1689 19.6845 32.8656 18.997 33.7266 18.997C34.5876 18.997 35.2843 19.6845 35.2843 20.5342C35.2843 23.953 35.2843 24.8 35.2843 28.2203C35.2843 29.9151 36.6823 31.2947 38.3998 31.2947C40.1172 31.2947 41.5152 29.9151 41.5152 28.2203C41.5152 17.9321 34.6164 12.8481 27.4958 12.8481C19.7651 12.8481 13.4764 19.0541 13.4764 26.6831C13.4764 34.3121 19.7651 40.518 27.4958 40.518C30.6112 40.518 33.5578 39.5333 36.0176 37.6687C37.6607 36.431 39.5422 38.8744 37.916 40.1066C34.9056 42.3869 31.3033 43.5924 27.4958 43.5924C18.0476 43.5924 10.361 36.0069 10.361 26.6831C10.361 17.3592 18.0476 9.7737 27.4958 9.7737C36.1044 9.7737 44.6306 16.0389 44.6306 28.2203C44.6306 31.6115 41.8362 34.3691 38.3998 34.3691Z" fill="#FCA311"/>
</svg>
