<svg width="54" height="54" viewBox="0 0 54 54" fill="none" xmlns="http://www.w3.org/2000/svg">
<path d="M53.8869 26.6894C53.8869 12.0603 41.9079 0.203857 27.1276 0.203857C12.3472 0.203857 0.368225 12.0603 0.368225 26.6894C0.368225 41.3185 12.3472 53.1749 27.1276 53.1749C27.2844 53.1749 27.4412 53.1749 27.598 53.1646V32.5555H21.8489V25.9238H27.598V21.0405C27.598 15.3813 31.0892 12.2982 36.1902 12.2982C38.6362 12.2982 40.7372 12.4741 41.3435 12.5569V18.4747H37.8313C35.0613 18.4747 34.5178 19.7783 34.5178 21.6923V25.9134H41.1553L40.2877 32.5452H34.5178V52.1507C45.7023 48.9745 53.8869 38.7838 53.8869 26.6894Z" fill="#19D3E0"/>
</svg>
