<svg width="55" height="55" viewBox="0 0 55 55" fill="none" xmlns="http://www.w3.org/2000/svg">
<path d="M32.7637 27.5C32.7637 30.4071 30.4071 32.7637 27.5 32.7637C24.5929 32.7637 22.2363 30.4071 22.2363 27.5C22.2363 24.5929 24.5929 22.2363 27.5 22.2363C30.4071 22.2363 32.7637 24.5929 32.7637 27.5Z" fill="#D90A51"/>
<path d="M39.81 18.1871C39.5569 17.5014 39.1533 16.8808 38.6287 16.3714C38.1193 15.8469 37.4991 15.4432 36.8131 15.1902C36.2567 14.9741 35.4208 14.7168 33.8812 14.6468C32.2157 14.5708 31.7164 14.5544 27.5001 14.5544C23.2834 14.5544 22.784 14.5704 21.119 14.6463C19.5794 14.7168 18.7431 14.9741 18.1871 15.1902C17.501 15.4432 16.8804 15.8469 16.3714 16.3714C15.8469 16.8808 15.4432 17.501 15.1898 18.1871C14.9737 18.7435 14.7165 19.5798 14.6464 21.1193C14.5704 22.7844 14.5541 23.2837 14.5541 27.5005C14.5541 31.7168 14.5704 32.2161 14.6464 33.8816C14.7165 35.4211 14.9737 36.257 15.1898 36.8134C15.4432 37.4995 15.8465 38.1197 16.371 38.6291C16.8804 39.1536 17.5006 39.5573 18.1867 39.8103C18.7431 40.0269 19.5794 40.2841 21.119 40.3542C22.784 40.4301 23.2829 40.4461 27.4997 40.4461C31.7168 40.4461 32.2162 40.4301 33.8808 40.3542C35.4204 40.2841 36.2567 40.0269 36.8131 39.8103C38.1902 39.2791 39.2787 38.1906 39.81 36.8134C40.0261 36.257 40.2833 35.4211 40.3538 33.8816C40.4297 32.2161 40.4457 31.7168 40.4457 27.5005C40.4457 23.2837 40.4297 22.7844 40.3538 21.1193C40.2837 19.5798 40.0265 18.7435 39.81 18.1871ZM27.5001 35.6087C23.0215 35.6087 19.391 31.9786 19.391 27.5C19.391 23.0215 23.0215 19.3914 27.5001 19.3914C31.9782 19.3914 35.6088 23.0215 35.6088 27.5C35.6088 31.9786 31.9782 35.6087 27.5001 35.6087ZM35.9294 20.9658C34.8828 20.9658 34.0344 20.1173 34.0344 19.0708C34.0344 18.0243 34.8828 17.1758 35.9294 17.1758C36.9759 17.1758 37.8243 18.0243 37.8243 19.0708C37.8239 20.1173 36.9759 20.9658 35.9294 20.9658Z" fill="#D90A51"/>
<path d="M27.5 0C12.3145 0 0 12.3145 0 27.5C0 42.6855 12.3145 55 27.5 55C42.6855 55 55 42.6855 55 27.5C55 12.3145 42.6855 0 27.5 0ZM43.1958 34.0104C43.1194 35.6913 42.8521 36.839 42.4619 37.8436C41.6415 39.9647 39.9647 41.6415 37.8436 42.4619C36.8394 42.8521 35.6913 43.119 34.0108 43.1958C32.3269 43.2726 31.7889 43.291 27.5004 43.291C23.2115 43.291 22.674 43.2726 20.9896 43.1958C19.3091 43.119 18.161 42.8521 17.1569 42.4619C16.1028 42.0653 15.1486 41.4439 14.3597 40.6403C13.5566 39.8518 12.9351 38.8972 12.5386 37.8436C12.1483 36.8394 11.881 35.6913 11.8047 34.0108C11.727 32.3264 11.709 31.7885 11.709 27.5C11.709 23.2115 11.727 22.6736 11.8042 20.9896C11.8806 19.3087 12.1475 18.161 12.5377 17.1564C12.9343 16.1028 13.5561 15.1482 14.3597 14.3597C15.1482 13.5561 16.1028 12.9347 17.1564 12.5381C18.161 12.1479 19.3087 11.881 20.9896 11.8042C22.6736 11.7274 23.2115 11.709 27.5 11.709C31.7885 11.709 32.3264 11.7274 34.0104 11.8047C35.6913 11.881 36.839 12.1479 37.8436 12.5377C38.8972 12.9343 39.8518 13.5561 40.6407 14.3597C41.4439 15.1486 42.0657 16.1028 42.4619 17.1564C42.8525 18.161 43.1194 19.3087 43.1962 20.9896C43.273 22.6736 43.291 23.2115 43.291 27.5C43.291 31.7885 43.273 32.3264 43.1958 34.0104Z" fill="#D90A51"/>
</svg>
