<svg width="54" height="54" viewBox="0 0 54 54" fill="none" xmlns="http://www.w3.org/2000/svg">
<path d="M26.9497 0.440186C12.259 0.440186 0.345886 12.3533 0.345886 27.044C0.345886 41.7346 12.259 53.6477 26.9497 53.6477C41.6403 53.6477 53.5534 41.7346 53.5534 27.044C53.5534 12.3533 41.6403 0.440186 26.9497 0.440186ZM19.2189 40.6576H12.7397V21.1647H19.2189V40.6576ZM15.9795 18.503H15.9373C13.7631 18.503 12.3569 17.0062 12.3569 15.1357C12.3569 13.2229 13.8061 11.7676 16.0225 11.7676C18.239 11.7676 19.6029 13.2229 19.6452 15.1357C19.6452 17.0062 18.239 18.503 15.9795 18.503ZM42.5816 40.6576H36.1032V30.2294C36.1032 27.6086 35.1651 25.8213 32.8208 25.8213C31.031 25.8213 29.965 27.0269 29.4965 28.1907C29.3252 28.6072 29.2834 29.1894 29.2834 29.7719V40.6576H22.8046C22.8046 40.6576 22.8894 22.9935 22.8046 21.1647H29.2834V23.9247C30.1444 22.5965 31.685 20.7072 35.1225 20.7072C39.3853 20.7072 42.5816 23.4932 42.5816 29.4804V40.6576Z" fill="#EA5958"/>
</svg>
